<svg viewBox="0 0 40.058 50.026" max-width="100%" width="auto" max-height="100vh" height="auto" xmlns="http://www.w3.org/2000/svg"><path style="display:inline;fill:#282828;fill-opacity:1;stroke:#4d4d4d;stroke-width:0;stroke-miterlimit:4;stroke-dasharray:none" transform="rotate(90 17.218 -101.431)" d="M118.663-124.232h50v40h-50z"/><path d="M124.245 118.675h-40m40 1h-40m40 1h-40m40 1h-40m40 1h-40m40 1.001h-40m40 1h-40m40 1h-40m40 1h-40m40 1h-40m40 1h-40m40 1h-40m40 1.001h-40m40 1h-40m40 1h-40m40 1h-40m40 1h-40m40 1h-40m40 1h-40m40 1h-40m40 1.001h-40m40 1h-40m40 1h-40m40 1h-40m40 1h-40m40 1h-40m40 1h-40m40 1h-40m40 1.001h-40m40 1h-40m40 1h-40m40 1h-40m40 1h-40m40 1h-40m40 1h-40m40 1h-40m40 1.001h-40m40 1h-40m40 1h-40m40 1h-40m40 1h-40m40 1h-40m40 1h-40m40 1h-40m40 1.001h-40m40 1h-40m40 1h-40m40 1h-40m40 1h-40m40 1h-40m40-49.006v50m-1-50v50m-1-50v50m-1-50v50m-1-50v50m-1.001-50v50m-1-50v50m-1-50v50m-1-50v50m-1-50v50m-1-50v50m-1-50v50m-1-50v50m-1.001-50v50m-1-50v50m-1-50v50m-1-50v50m-1-50v50m-1-50v50m-1-50v50m-1-50v50m-1.001-50v50m-1-50v50m-1-50v50m-1-50v50m-1-50v50m-1-50v50m-1-50v50m-1-50v50m-1.001-50v50m-1-50v50m-1-50v50m-1-50v50m-1-50v50m-1-50v50m-1-50v50m-1-50v50m-1.001-50v50m-1-50v50m-1-50v50" style="display:inline;fill:none;stroke:#d3bd97;stroke-width:.0529167px;stroke-opacity:1" transform="translate(-84.213 -118.649)"/><path style="display:inline;fill:#d3bd97;stroke:#4d4d4d;stroke-width:0" d="M124.271 168.175v.5h-19.029v-.5zM103.242 168.175v.5H84.213v-.5z" transform="translate(-84.213 -118.649)"/><path style="display:inline;fill:#d3bd97;fill-opacity:1;stroke:#4d4d4d;stroke-width:0;stroke-miterlimit:4;stroke-dasharray:none" transform="rotate(90 17.218 -101.431)" d="M118.676-124.244h.5v40h-.5z"/><path style="display:inline;fill:#d3bd97;fill-opacity:1;stroke:#4d4d4d;stroke-width:0;stroke-miterlimit:4;stroke-dasharray:none" transform="rotate(180 -42.107 -59.324)" d="M-124.244-168.175h.5v49.5h-.5zM-84.745-168.175h.5v49.5h-.5z"/><path style="fill:#d3bd97;stroke:#4d4d4d;stroke-width:0" d="M123.744 163.18v-.5h-12.501v.5zM123.745 155.68v-.5h-12.502v.5zM111.243 161.431h-.5v1.75h.5z" transform="translate(-84.213 -118.649)"/><path style="fill:#a9b665;fill-opacity:1;stroke:#7daea3;stroke-width:0;stroke-miterlimit:4;stroke-dasharray:none;stroke-opacity:1" d="M.678-5.297h2v2.5h-2zM3.678-5.297h2v2.5h-2zM6.678-5.297h2v2.5h-2zM9.679-5.297h2v2.5h-2zM.677-1.796h2v2.5h-2zM3.678-1.796h2v2.5h-2zM6.678-1.796h2v2.5h-2z" transform="matrix(-1 0 0 1 39.709 42.828)"/><path style="fill:#d3bd97;stroke:#4d4d4d;stroke-width:0" d="M123.744 147.68v.5h-12.501v-.5zM111.243 159.181h-.5v-8.001h.5zM97.741 159.431h-.5v-8.001h.5zM111.243 149.429h-.5v-1.75h.5z" transform="translate(-84.213 -118.649)"/><path style="fill:#a9b665;fill-opacity:1;stroke:#7daea3;stroke-width:0;stroke-miterlimit:4;stroke-dasharray:none;stroke-opacity:1" d="M.678-5.297h2v2.5h-2zM3.678-5.297h2v2.5h-2zM6.678-5.297h2v2.5h-2zM9.679-5.297h2v2.5h-2zM.677-1.796h2v2.5h-2zM3.678-1.796h2v2.5h-2zM6.678-1.796h2v2.5h-2z" transform="rotate(180 19.854 15.367)"/><path style="fill:#d3bd97;stroke:#4d4d4d;stroke-width:0" d="M118.249 140.428v.5h5.496v-.5zM118.249 147.68h.5v-4.255h-.5zM118.249 134.176h.5v3.755h-.5z" transform="translate(-84.213 -118.649)"/><path style="fill:#d3bd97;stroke:#4d4d4d;stroke-width:0" d="M118.249 139.928h.5v1.5h-.5zM90.24 140.428v.5h-5.495v-.5zM90.24 147.68h-.5v-4.255h.5zM90.24 134.176h-.5v3.755h.5z" transform="translate(-84.213 -118.649)"/><path style="fill:#d3bd97;stroke:#4d4d4d;stroke-width:0" d="M90.24 139.928h-.5v1.5h.5zM84.74 163.18v-.5H97.24v.5zM84.74 155.68v-.5H97.24v.5zM97.241 161.431h.5v1.75h-.5z" transform="translate(-84.213 -118.649)"/><path style="fill:#a9b665;fill-opacity:1;stroke:#7daea3;stroke-width:0;stroke-miterlimit:4;stroke-dasharray:none;stroke-opacity:1" d="M.678-5.297h2v2.5h-2zM3.678-5.297h2v2.5h-2zM6.678-5.297h2v2.5h-2zM9.679-5.297h2v2.5h-2zM.677-1.796h2v2.5h-2zM3.678-1.796h2v2.5h-2zM6.678-1.796h2v2.5h-2z" transform="translate(.35 42.828)"/><path style="fill:#d3bd97;stroke:#4d4d4d;stroke-width:0" d="M84.74 147.68v.5H97.24v-.5zM97.241 149.43h.5v-1.75h-.5z" transform="translate(-84.213 -118.649)"/><path style="fill:#a9b665;fill-opacity:1;stroke:#7daea3;stroke-width:0;stroke-miterlimit:4;stroke-dasharray:none;stroke-opacity:1" d="M.678-5.297h2v2.5h-2zM3.678-5.297h2v2.5h-2zM6.678-5.297h2v2.5h-2zM9.679-5.297h2v2.5h-2zM.677-1.796h2v2.5h-2zM3.678-1.796h2v2.5h-2zM6.678-1.796h2v2.5h-2z" transform="matrix(1 0 0 -1 .35 30.735)"/><path style="display:inline;fill:#d3bd97;stroke:#4d4d4d;stroke-width:0" d="M84.74 134.176v-.5H97.24v.5zM84.74 126.676v-.5H97.24v.5zM97.241 126.176h.5v4.25h-.5zM97.241 132.427h.5v1.75h-.5z" transform="translate(-84.213 -118.649)"/><g style="display:inline"><path style="fill:#a9b665;fill-opacity:1;stroke:#7daea3;stroke-width:0;stroke-miterlimit:4;stroke-dasharray:none;stroke-opacity:1" d="M.678-5.297h2v2.5h-2zM3.678-5.297h2v2.5h-2zM6.678-5.297h2v2.5h-2zM9.679-5.297h2v2.5h-2zM.677-1.796h2v2.5h-2zM3.678-1.796h2v2.5h-2zM6.678-1.796h2v2.5h-2z" transform="translate(.35 13.823)"/></g><path style="display:inline;fill:#d3bd97;stroke:#4d4d4d;stroke-width:0" d="M84.74 118.675v.5H97.24v-.5zM84.74 126.176v.5H97.24v-.5zM97.241 126.676h.5v-4.25h-.5zM97.241 120.425h.5v-1.75h-.5z" transform="translate(-84.213 -118.649)"/><g style="display:inline"><path style="fill:#a9b665;fill-opacity:1;stroke:#7daea3;stroke-width:0;stroke-miterlimit:4;stroke-dasharray:none;stroke-opacity:1" d="M.678-5.297h2v2.5h-2zM3.678-5.297h2v2.5h-2zM6.678-5.297h2v2.5h-2zM9.679-5.297h2v2.5h-2zM.677-1.796h2v2.5h-2zM3.678-1.796h2v2.5h-2zM6.678-1.796h2v2.5h-2z" transform="matrix(1 0 0 -1 .35 1.73)"/></g><path style="display:inline;fill:#d3bd97;stroke:#4d4d4d;stroke-width:0" d="M123.75 134.177v-.5H111.25v.5zM123.75 126.676v-.5h-12.5v.5zM111.25 126.176h-.5v4.25h.5zM111.25 132.427h-.5v1.75h.5z" transform="translate(-84.213 -118.649)"/><g style="display:inline"><path style="fill:#a9b665;fill-opacity:1;stroke:#7daea3;stroke-width:0;stroke-miterlimit:4;stroke-dasharray:none;stroke-opacity:1" d="M.678-5.297h2v2.5h-2zM3.678-5.297h2v2.5h-2zM6.678-5.297h2v2.5h-2zM9.679-5.297h2v2.5h-2zM.677-1.796h2v2.5h-2zM3.678-1.796h2v2.5h-2zM6.678-1.796h2v2.5h-2z" transform="matrix(-1 0 0 1 39.715 13.824)"/></g><path style="display:inline;fill:#d3bd97;stroke:#4d4d4d;stroke-width:0" d="M123.75 118.676v.5H111.25v-.5zM123.75 126.176v.5h-12.5v-.5zM111.25 126.676h-.5v-4.25h.5zM111.25 120.425h-.5v-1.75h.5z" transform="translate(-84.213 -118.649)"/><g style="display:inline"><path style="fill:#a9b665;fill-opacity:1;stroke:#7daea3;stroke-width:0;stroke-miterlimit:4;stroke-dasharray:none;stroke-opacity:1" d="M.678-5.297h2v2.5h-2zM3.678-5.297h2v2.5h-2zM6.678-5.297h2v2.5h-2zM9.679-5.297h2v2.5h-2zM.677-1.796h2v2.5h-2zM3.678-1.796h2v2.5h-2zM6.678-1.796h2v2.5h-2z" transform="rotate(180 19.604 .865)"/></g><path style="display:inline;fill:#d4be98;fill-opacity:1;stroke:#d3bd97;stroke-width:.030151;stroke-miterlimit:4;stroke-dasharray:none;stroke-opacity:1" d="M101.242 162.681h6.001v4h-6.001z" transform="translate(-84.213 -118.649)"/><path style="display:inline;fill:#d8a657;fill-opacity:1;stroke:#d3bd97;stroke-width:.0544281;stroke-miterlimit:4;stroke-dasharray:none;stroke-opacity:1" d="M99.791 155.68h8.903v5.001h-8.903zM99.791 148.679h8.903v5.001h-8.903zM100.242 129.177h9.001v5.001h-9.001zM92.241 136.178h9.001v3.5h-9.001zM92.241 141.678h9.001v4h-9.001zM107.242 136.178h9.001v3.5h-9.001zM107.242 141.678h9.001v4h-9.001z" transform="translate(-84.213 -118.649)"/><path style="display:inline;fill:#d4be98;fill-opacity:1;stroke:#d3bd97;stroke-width:0;stroke-miterlimit:4;stroke-dasharray:none;stroke-opacity:1" d="M99.241 120.676H109.3v5.001H99.241z" transform="translate(-84.213 -118.649)"/><path style="display:inline;fill:#d4be98;fill-opacity:1;stroke:#d3bd97;stroke-width:.0368604;stroke-miterlimit:4;stroke-dasharray:none;stroke-opacity:1" d="M86.24 164.681h12.502v2H86.24zM109.743 164.681h12.502v2h-12.502z" transform="translate(-84.213 -118.649)"/><g aria-label="гардероб" style="font-weight:700;font-size:2.11667px;line-height:1.25;font-family:'iA Writer Duospace';-inkscape-font-specification:'iA Writer Duospace Bold';display:inline;fill:#282828;stroke-width:.264583"><path d="M4.202 46.518v.243H3.69v.85h-.314v-1.093zM5.419 47.61q-.097 0-.159-.05-.06-.051-.068-.142h-.01q-.028.105-.117.163-.088.055-.215.055-.161 0-.257-.087-.095-.087-.095-.24 0-.336.491-.336h.176v-.055q0-.1-.047-.148-.046-.049-.152-.049-.093 0-.157.036-.061.036-.11.102l-.171-.153q.057-.097.178-.154.12-.06.296-.06.226 0 .351.106.125.104.125.307v.479h.12v.226zm-.45-.18q.086 0 .14-.04.056-.042.056-.116v-.132h-.167q-.093 0-.144.034-.049.032-.049.096v.042q0 .057.042.087.045.03.121.03zM6.096 46.518v.199h.015q.045-.106.12-.165.08-.06.204-.06.188 0 .298.144.113.142.113.428 0 .286-.113.43-.11.142-.298.142-.125 0-.203-.06-.076-.06-.12-.165h-.016v.622h-.313v-1.515zm.203.874q.104 0 .161-.063.06-.066.06-.18v-.17q0-.114-.06-.177-.057-.066-.16-.066-.09 0-.147.042-.057.043-.057.125v.322q0 .082.057.125.058.042.146.042zM7.076 47.367q.119-.182.119-.515v-.334h.798v.849h.17v.54h-.285v-.297h-.645v.297h-.284v-.54zm.614-.606h-.214v.1q0 .163-.023.292-.023.13-.066.214h.303zM8.863 47.636q-.271 0-.415-.15-.144-.151-.144-.418 0-.268.142-.42.144-.155.39-.155.243 0 .384.15.142.148.142.404v.093h-.747v.02q0 .107.068.17.068.064.19.064.174 0 .288-.135l.17.184q-.07.087-.187.14-.116.053-.281.053zm-.026-.919q-.101 0-.163.063-.059.062-.059.168v.017h.44v-.017q0-.106-.059-.168-.057-.063-.159-.063zM9.906 46.518v.199h.015q.045-.106.12-.165.08-.06.204-.06.188 0 .298.144.113.142.113.428 0 .286-.113.43-.11.142-.298.142-.125 0-.203-.06-.076-.06-.12-.165h-.016v.622h-.313v-1.515zm.203.874q.104 0 .161-.063.06-.066.06-.18v-.17q0-.114-.06-.177-.057-.066-.16-.066-.09 0-.147.042-.057.043-.057.125v.322q0 .082.057.125.058.042.146.042zM11.373 47.636q-.256 0-.402-.153-.146-.154-.146-.419 0-.264.146-.417.146-.154.402-.154t.402.154q.146.153.146.417 0 .265-.146.42-.146.152-.402.152zm0-.233q.106 0 .165-.066.06-.065.06-.186v-.174q0-.12-.06-.186t-.165-.066q-.106 0-.165.066-.06.066-.06.186v.174q0 .12.06.186t.165.066zM12.645 47.636q-.25 0-.393-.161-.142-.161-.142-.455 0-.339.065-.546.066-.21.212-.312.146-.103.394-.116l.328-.015v.284l-.297.01q-.143.004-.222.051-.078.045-.112.138-.032.09-.038.252h.015q.072-.218.296-.218.195 0 .311.135.117.133.117.381 0 .265-.144.42-.142.152-.39.152zm0-.233q.095 0 .153-.066.057-.065.057-.173v-.166q0-.105-.055-.16-.055-.058-.155-.058-.097 0-.154.066-.055.066-.055.186v.119q0 .12.055.186.057.066.154.066z"/></g><g aria-label="гардероб" style="font-weight:700;font-size:2.11667px;line-height:1.25;font-family:'iA Writer Duospace';-inkscape-font-specification:'iA Writer Duospace Bold';display:inline;fill:#282828;stroke-width:.264583"><path d="M27.955 46.518v.243h-.512v.85h-.314v-1.093zM29.172 47.61q-.097 0-.159-.05-.06-.051-.068-.142h-.01q-.028.105-.117.163-.088.055-.215.055-.161 0-.257-.087-.095-.087-.095-.24 0-.336.491-.336h.176v-.055q0-.1-.047-.148-.046-.049-.152-.049-.093 0-.157.036-.061.036-.11.102l-.171-.153q.057-.097.178-.154.12-.06.296-.06.226 0 .351.106.125.104.125.307v.479h.12v.226zm-.45-.18q.086 0 .14-.04.056-.042.056-.116v-.132h-.167q-.093 0-.144.034-.049.032-.049.096v.042q0 .057.042.087.045.03.121.03zM29.85 46.518v.199h.014q.044-.106.12-.165.079-.06.204-.06.188 0 .298.144.113.142.113.428 0 .286-.113.43-.11.142-.298.142-.125 0-.203-.06-.077-.06-.121-.165h-.015v.622h-.313v-1.515zm.202.874q.104 0 .161-.063.06-.066.06-.18v-.17q0-.114-.06-.177-.057-.066-.16-.066-.09 0-.147.042-.057.043-.057.125v.322q0 .082.057.125.058.042.146.042zM30.83 47.367q.118-.182.118-.515v-.334h.798v.849h.17v.54h-.285v-.297h-.645v.297h-.284v-.54zm.613-.606h-.214v.1q0 .163-.023.292-.023.13-.066.214h.303zM32.616 47.636q-.271 0-.415-.15-.144-.151-.144-.418 0-.268.142-.42.144-.155.39-.155.243 0 .384.15.142.148.142.404v.093h-.747v.02q0 .107.068.17.067.064.19.064.174 0 .288-.135l.17.184q-.07.087-.187.14-.116.053-.281.053zm-.026-.919q-.101 0-.163.063-.059.062-.059.168v.017h.44v-.017q0-.106-.059-.168-.057-.063-.159-.063zM33.66 46.518v.199h.014q.044-.106.12-.165.079-.06.204-.06.188 0 .298.144.113.142.113.428 0 .286-.113.43-.11.142-.298.142-.125 0-.203-.06-.077-.06-.121-.165h-.015v.622h-.313v-1.515zm.202.874q.104 0 .161-.063.06-.066.06-.18v-.17q0-.114-.06-.177-.057-.066-.16-.066-.09 0-.147.042-.057.043-.057.125v.322q0 .082.057.125.058.042.146.042zM35.126 47.636q-.256 0-.402-.153-.146-.154-.146-.419 0-.264.146-.417.146-.154.402-.154t.402.154q.146.153.146.417 0 .265-.146.42-.146.152-.402.152zm0-.233q.106 0 .165-.066.06-.065.06-.186v-.174q0-.12-.06-.186t-.165-.066q-.106 0-.165.066-.06.066-.06.186v.174q0 .12.06.186t.165.066zM36.398 47.636q-.25 0-.394-.161-.141-.161-.141-.455 0-.339.065-.546.066-.21.212-.312.146-.103.394-.116l.328-.015v.284l-.297.01q-.144.004-.222.051-.078.045-.112.138-.032.09-.038.252h.015q.072-.218.296-.218.195 0 .311.135.117.133.117.381 0 .265-.144.42-.142.152-.39.152zm0-.233q.095 0 .153-.066.057-.065.057-.173v-.166q0-.105-.055-.16-.055-.058-.155-.058-.097 0-.154.066-.055.066-.055.186v.119q0 .12.055.186.057.066.154.066z"/></g><g aria-label="охрана" style="font-weight:700;font-size:1.70799px;line-height:1.25;font-family:'iA Writer Duospace';-inkscape-font-specification:'iA Writer Duospace Bold';display:inline;fill:#282828;stroke-width:.264583"><path d="M17.456 46.333q-.207 0-.325-.123-.117-.125-.117-.338 0-.214.117-.337.118-.125.325-.125.207 0 .324.125.118.123.118.337 0 .213-.118.338-.117.123-.324.123zm0-.188q.085 0 .133-.053t.048-.15v-.14q0-.098-.048-.15-.048-.054-.133-.054-.086 0-.133.053-.048.053-.048.15v.14q0 .098.048.15.047.054.133.054zM18.337 45.865l-.307-.434h.288l.094.142.072.114h.014l.073-.114.096-.142h.265l-.308.42.33.461h-.29l-.112-.165-.077-.118h-.013l-.075.118-.113.165h-.267zM19.347 45.431v.16h.012q.036-.085.097-.133.063-.047.164-.047.152 0 .24.116.091.114.091.345 0 .23-.09.346-.089.115-.241.115-.1 0-.164-.048-.061-.048-.097-.133h-.012v.502h-.253v-1.223zm.164.705q.083 0 .13-.05.047-.054.047-.146v-.137q0-.092-.048-.143-.046-.053-.13-.053-.071 0-.117.034-.046.034-.046.1v.26q0 .067.046.101t.118.034zM20.85 46.312q-.079 0-.128-.04-.048-.042-.055-.115h-.01q-.021.085-.093.131-.072.045-.174.045-.13 0-.207-.07-.077-.07-.077-.193 0-.272.397-.272h.141v-.044q0-.08-.037-.12-.038-.039-.123-.039-.076 0-.127.029-.05.029-.088.082l-.139-.123q.046-.079.144-.125.097-.047.239-.047.182 0 .283.085.101.084.101.248v.386h.097v.182zm-.364-.145q.07 0 .114-.032.045-.035.045-.094v-.106h-.135q-.075 0-.116.027-.04.026-.04.077v.034q0 .046.035.07.035.024.097.024zM21.412 45.431v.336h.287v-.336h.252v.881H21.7v-.348h-.287v.348h-.253v-.881zM22.9 46.312q-.08 0-.129-.04-.048-.042-.055-.115h-.009q-.022.085-.093.131-.072.045-.175.045-.13 0-.206-.07-.077-.07-.077-.193 0-.272.396-.272h.142v-.044q0-.08-.038-.12-.037-.039-.123-.039-.075 0-.126.029-.05.029-.089.082l-.138-.123q.046-.079.143-.125.098-.047.24-.047.182 0 .283.085.1.084.1.248v.386h.098v.182zm-.365-.145q.07 0 .115-.032.044-.035.044-.094v-.106h-.135q-.075 0-.116.027-.04.026-.04.077v.034q0 .046.035.07.036.024.097.024z"/></g><g aria-label="лестница на второй этаж" style="font-weight:700;font-size:1.47475px;line-height:.95;font-family:'iA Writer Duospace';-inkscape-font-specification:'iA Writer Duospace Bold';text-align:center;text-anchor:middle;display:inline;stroke-width:.264583"><path d="M15.31 3.899q.034-.042.05-.117.018-.075.018-.208v-.267h.581v.761h-.218v-.591h-.167v.103q0 .323-.097.42-.042.042-.09.06-.049.017-.12.017h-.06V3.9zM16.522 4.086q-.188 0-.289-.105-.1-.104-.1-.29 0-.187.099-.294.1-.107.271-.107.17 0 .269.104.098.104.098.282v.065h-.52v.013q0 .075.047.12.047.044.133.044.12 0 .2-.094l.118.128q-.048.06-.13.097-.08.037-.196.037zm-.017-.64q-.071 0-.114.044-.041.043-.041.117v.012h.307v-.012q0-.074-.042-.117-.04-.044-.11-.044zM17.418 4.086q-.18 0-.284-.106-.101-.106-.101-.292 0-.184.101-.29.104-.108.282-.108.229 0 .317.186l-.168.09q-.022-.048-.057-.074-.034-.028-.092-.028-.074 0-.115.044-.041.043-.041.118v.124q0 .076.041.12.041.042.118.042.06 0 .096-.027.038-.028.065-.08l.165.095q-.043.087-.124.137-.081.05-.203.05zM17.913 3.477v-.17h.717v.17h-.25v.591h-.216v-.591zM19.032 3.307v.29h.248v-.29h.218v.761h-.218v-.3h-.248v.3h-.218v-.76zM19.911 3.307v.245l-.017.224h.009l.275-.469h.205v.761h-.212v-.244l.018-.225h-.01l-.275.47h-.205v-.762zM20.565 4.068v-.76h.218v.59h.224v-.59h.218v.59h.118v.377h-.197v-.207zM22.087 4.068q-.068 0-.111-.035-.041-.035-.047-.099h-.007q-.02.074-.081.114-.062.038-.15.038-.113 0-.18-.06-.066-.06-.066-.167 0-.235.343-.235h.122v-.038q0-.07-.032-.103-.033-.034-.107-.034-.065 0-.109.025-.043.025-.076.071l-.12-.106q.04-.068.124-.108.084-.041.206-.041.158 0 .245.074.087.072.087.213v.334h.084v.157zm-.315-.125q.061 0 .1-.028.038-.03.038-.081v-.091h-.117q-.065 0-.1.023-.034.022-.034.067v.029q0 .04.03.06.03.021.083.021zM23.457 3.307v.29h.247v-.29h.219v.761h-.219v-.3h-.247v.3h-.219v-.76zM24.741 4.068q-.068 0-.11-.035-.042-.035-.048-.099h-.007q-.019.074-.08.114-.063.038-.151.038-.112 0-.179-.06-.066-.06-.066-.167 0-.235.342-.235h.122v-.038q0-.07-.032-.103-.032-.034-.106-.034-.065 0-.11.025-.042.025-.076.071l-.12-.106q.04-.068.124-.108.085-.041.207-.041.158 0 .245.074.087.072.087.213v.334h.084v.157zm-.314-.125q.06 0 .099-.028.038-.03.038-.081v-.091h-.116q-.065 0-.1.023-.035.022-.035.067v.029q0 .04.03.06.03.021.084.021zM15.506 4.708q.105 0 .161.054.058.053.058.141 0 .136-.161.167v.007q.091.007.14.051.05.043.05.117 0 .103-.065.164-.065.06-.18.06h-.438v-.76zm-.062.316q.03 0 .046-.016.016-.018.016-.049v-.03q0-.032-.016-.048-.016-.018-.046-.018h-.16v.161zm.027.29q.065 0 .065-.061v-.036q0-.03-.018-.047-.016-.016-.047-.016h-.187v.16zM15.922 4.878v-.17h.717v.17h-.25v.591h-.216v-.591zM17.165 5.487q-.178 0-.28-.106-.102-.108-.102-.292t.102-.29q.102-.108.28-.108.179 0 .28.107.102.107.102.29 0 .185-.101.293-.102.106-.28.106zm0-.162q.074 0 .115-.046.042-.046.042-.13v-.12q0-.085-.042-.13-.04-.046-.115-.046-.073 0-.115.046-.041.045-.041.13v.12q0 .084.041.13.042.046.115.046zM17.913 4.708v.139h.01q.031-.074.084-.115.055-.041.142-.041.131 0 .208.1.078.099.078.298 0 .199-.078.3-.077.098-.208.098-.087 0-.142-.041-.053-.042-.084-.115h-.01v.433h-.218V4.708zm.142.61q.072 0 .112-.045.041-.045.041-.125V5.03q0-.08-.041-.124-.04-.046-.112-.046-.062 0-.102.03-.04.03-.04.087V5.2q0 .058.04.087.04.03.102.03zM18.935 5.487q-.178 0-.28-.106-.102-.108-.102-.292t.102-.29q.102-.108.28-.108.178 0 .28.107.102.107.102.29 0 .185-.102.293-.102.106-.28.106zm0-.162q.074 0 .115-.046.041-.046.041-.13v-.12q0-.085-.04-.13-.042-.046-.116-.046-.074 0-.115.046-.041.045-.041.13v.12q0 .084.041.13t.115.046zM19.823 4.629q-.187 0-.252-.168l-.031-.081.17-.064.046.158q.01.004.028.007.02.003.039.003t.038-.003q.02-.003.028-.007l.047-.158.17.064-.031.08q-.065.169-.252.169zm-.133.08v.244l-.018.224h.01l.275-.469h.205v.761h-.212v-.244L19.968 5h-.01l-.275.47h-.205v-.762zM21.728 5.017q-.003-.077-.047-.12-.044-.044-.125-.044-.064 0-.1.028-.038.028-.061.083l-.16-.087q.042-.089.119-.138.078-.048.202-.048.181 0 .284.106.103.106.103.292t-.103.292q-.102.106-.281.106-.23 0-.325-.18l.158-.09q.024.052.063.08.04.028.104.028.08 0 .122-.043.044-.044.047-.121h-.239v-.144zM22.116 4.878v-.17h.717v.17h-.25v.591h-.216v-.591zM23.635 5.47q-.068 0-.11-.036-.042-.035-.048-.099h-.007q-.019.074-.08.114-.063.038-.151.038-.112 0-.179-.06-.066-.061-.066-.167 0-.235.342-.235h.122v-.038q0-.07-.032-.103-.032-.034-.106-.034-.065 0-.11.025-.042.025-.076.07l-.12-.105q.04-.068.124-.108.085-.041.207-.041.158 0 .245.073t.087.214v.334h.084v.157zm-.314-.126q.06 0 .099-.028.038-.03.038-.081v-.091h-.116q-.065 0-.1.023-.035.022-.035.067v.029q0 .04.03.06.03.021.084.021zM23.965 5.3l.082-.16q.029-.054.085-.066v-.007q-.055-.013-.083-.07l-.066-.132h-.08v-.17h.09q.062 0 .102.026.04.025.07.084l.094.187h.097v-.296h.218v.296h.098l.094-.187q.03-.06.07-.084.04-.026.101-.026h.09v.17h-.08l-.066.133q-.028.056-.082.07v.006q.056.012.085.067l.081.159h.08v.17h-.099q-.062 0-.102-.026-.04-.025-.07-.085l-.102-.198h-.098v.308h-.218v-.308h-.097l-.102.198q-.031.06-.07.085-.04.025-.103.025h-.098V5.3z"/></g></svg>
