<svg width="auto" height="auto" viewBox="0 0 40 50.15" xmlns="http://www.w3.org/2000/svg"><path style="display:inline;fill:#282828;stroke:#4d4d4d;stroke-width:0" transform="rotate(90)" d="M0-40h50V0H0Z"/><path d="M40 1H0m40 1H0m40 1H0m40 1H0m40 1H0m40 1H0m40 1H0m40 1.001H0m40 1H0m40 1H0m40 1H0m40 1H0m40 1H0m40 1H0m40 1H0m40 1.001H0m40 1H0m40 1H0m40 1H0m40 1H0m40 1H0m40 1H0m40 1H0m40 1.001H0m40 1H0m40 1H0m40 1H0m40 1H0m40 1H0m40 1H0m40 1H0m40 1.001H0m40 1H0m40 1H0m40 1H0m40 1H0m40 1H0m40 1H0m40 1H0m40 1.001H0m40 1H0m40 1H0m40 1H0m40 1H0m40 1H0m40 1H0m40 1H0m40 1.001H0m40 1H0M39 0v50M38 0v50M37 0v50M36 0v50M35 0v50M34 0v50M33 0v50M31.998 0v50m-1-50v50m-1-50v50m-1-50v50m-1-50v50m-1-50v50m-1-50v50m-1-50v50M23.997 0v50m-1-50v50m-1-50v50m-1-50v50m-1-50v50m-1-50v50m-1-50v50m-1-50v50M15.996 0v50m-1-50v50m-1-50v50m-1-50v50m-1-50v50m-1-50v50m-1-50v50m-1-50v50M7.995 0v50m-1-50v50m-1-50v50m-1-50v50m-1-50v50m-1-50v50m-1-50v50m-1-50v50" style="display:inline;fill:none;stroke:#776b60;stroke-width:.0529167px;stroke-opacity:1"/><path style="display:inline;fill:#d3bd97;stroke-width:0;paint-order:stroke fill markers" d="M0 0h40v.3H0ZM0 49.85h40v.3H0Z"/><path style="display:inline;fill:#d3bd97;stroke-width:0;paint-order:stroke fill markers" transform="rotate(-90)" d="M-50 0H0v.3h-50Z"/><path style="display:inline;fill:#d3bd97;stroke-width:0;paint-order:stroke fill markers" transform="rotate(90)" d="M0-40h50v.3H0Z"/><path style="display:inline;fill:#776b60;stroke-width:0;paint-order:stroke fill markers" d="M.995 39.005h11.002v4H.995Z"/><g style="font-size:2.11667px;line-height:1.25;font-family:'Material Design Icons';-inkscape-font-specification:'Material Design Icons';display:inline;fill:#282828;fill-opacity:1;stroke-width:.264583"><path d="M45.48 16.03v1.322q0 .074.049.128.054.05.128.05v.087h.178v-.087h.306v-1.674h-.484q-.074 0-.128.053-.05.05-.05.12zm.355.528h.173v.265h-.173zm.88-.702h-.483v1.674h.306v.087h.177v-.087q.075 0 .124-.05.054-.054.054-.128V16.03q0-.07-.054-.12-.05-.053-.124-.053zm-.177.967h-.174v-.265h.174z" style="fill:#282828;fill-opacity:1" transform="translate(-39.69 24.27)" aria-label="󰾐"/></g><path style="display:inline;fill:#776b60;stroke-width:0;paint-order:stroke fill markers" d="M20.998 38.005H39v11.001H20.998Z"/><g style="font-size:2.11667px;line-height:1.25;font-family:'Material Design Icons';-inkscape-font-specification:'Material Design Icons';display:inline;fill:#282828;fill-opacity:1;stroke-width:.264583"><path d="M43.224 11.238q0-.07.05-.12.054-.054.124-.054h.31q.074 0 .124.054.054.05.054.12v.19q-.079.03-.128.1-.05.065-.05.148v.182h-.484zm-.574.438v.182h.483v-.62q0-.07-.053-.12-.05-.054-.12-.054h-.31q-.075 0-.128.054-.05.05-.05.12v.19q.078.03.128.1.05.065.05.148zm1.294-.17q-.066.009-.108.063-.041.053-.041.124v.252h-1.232v-.265q0-.074-.054-.124-.05-.053-.124-.053t-.128.053q-.05.05-.05.124v.443q0 .07.05.124.054.05.128.05v.177h.178v-.178h1.232v.178h.178v-.178q.074 0 .124-.05.053-.053.053-.123v-.443q0-.082-.062-.132-.062-.054-.144-.041z" style="fill:#282828;fill-opacity:1" transform="translate(-13.18 31.736)" aria-label="󰒹"/></g><path style="display:inline;fill:#776b60;stroke-width:0;paint-order:stroke fill markers" d="M16 1h8v3h-8z"/><path style="display:inline;fill:#7daea3;stroke-width:0;paint-order:stroke fill markers" d="M0 20.002h.3v2H0ZM0 23.003h.3v2H0ZM0 26.003h.3v2H0ZM0 29.004h.3v2H0Z"/><path d="M20.221 1.98h.616v.264h-.351v.351h-.352v.356h-.355v.351h-.616v-.264h.351v-.352h.356v-.355h.351zm-.897.206.488-.488.161.162-.488.487.162.162h-.484v-.484Z" aria-label="󱊾" style="font-weight:700;font-size:2.11667px;line-height:1.25;font-family:'Material Design Icons Desktop';-inkscape-font-specification:'Material Design Icons Desktop Bold';display:inline;fill:#282828;stroke-width:0"/><path style="display:inline;fill:#d3bd97;stroke-width:0;paint-order:stroke fill markers" transform="rotate(90)" d="M.3-15.297H5v.3H.3Z"/><path style="display:inline;fill:#d3bd97;stroke:#000;stroke-width:0;paint-order:stroke fill markers" d="M5.996 3c1.662 0 3 1.339 3 3v7.002c0 1.662-1.338 3-3 3s-3-1.338-3-3V6c0-1.662 1.338-3 3-3z"/><path style="display:inline;fill:#d3bd97;stroke-width:0;paint-order:stroke fill markers" transform="scale(-1)" d="M-11.996-19.002H-.3v.3h-11.696Z"/><path style="display:inline;fill:#d3bd97;stroke-width:0;paint-order:stroke fill markers" transform="rotate(90)" d="M7-12.297h12.002v.3H7.001Z"/><path style="display:inline;fill:#d3bd97;stroke-width:0;paint-order:stroke fill markers" transform="scale(-1)" d="M-14.997-5h3v.3h-3z"/><g style="display:inline"><path style="color:#000;fill:#000;-inkscape-stroke:none;paint-order:stroke fill markers" d="M108.184-7.526h1v1h-1z" transform="rotate(2.875 -122.723 -2049.594) scale(.99958)"/><path style="color:#000;fill:#d3bd97;stroke-width:0;-inkscape-stroke:none;paint-order:stroke fill markers" d="M108.184-7.526h1v1h-1v-1z" transform="rotate(2.875 -122.723 -2049.594) scale(.99958)"/><path style="color:#000;fill:#000;-inkscape-stroke:none;paint-order:stroke fill markers" d="M108.184-7.526h1v1h-1z" transform="rotate(25.656 37.511 -223.922) scale(.9996)"/><path style="color:#000;fill:#d3bd97;stroke-width:0;-inkscape-stroke:none;paint-order:stroke fill markers" d="M108.184-7.526h1v1h-1v-1z" transform="rotate(25.656 37.511 -223.922) scale(.9996)"/><path style="color:#000;fill:#000;-inkscape-stroke:none;paint-order:stroke fill markers" d="M108.184-7.526h1v1h-1z" transform="scale(.99961) rotate(53.245 48.417 -101.1)"/><path style="color:#000;fill:#d3bd97;stroke-width:0;-inkscape-stroke:none;paint-order:stroke fill markers" d="M108.184-7.526h1v1h-1v-1z" transform="scale(.99961) rotate(53.245 48.417 -101.1)"/><path style="color:#000;fill:#000;-inkscape-stroke:none;paint-order:stroke fill markers" d="M108.184-7.526h1v1h-1z" transform="rotate(75.644 51.478 -64.59) scale(.99959)"/><path style="color:#000;fill:#d3bd97;stroke-width:0;-inkscape-stroke:none;paint-order:stroke fill markers" d="M108.184-7.526h1v1h-1v-1z" transform="rotate(75.644 51.478 -64.59) scale(.99959)"/><path style="color:#000;fill:#000;-inkscape-stroke:none;paint-order:stroke fill markers" d="M108.184-7.526h1v1h-1z" transform="rotate(90 52.412 -49.441)"/><path style="color:#000;fill:#d3bd97;stroke-width:0;-inkscape-stroke:none;paint-order:stroke fill markers" d="M108.184-7.526h1v1h-1v-1z" transform="rotate(90 52.412 -49.441)"/><path style="color:#000;fill:#000;-inkscape-stroke:none;paint-order:stroke fill markers" d="M108.184-7.526h1v1h-1z" transform="rotate(90 51.522 -48.551)"/><path style="color:#000;fill:#d3bd97;stroke-width:0;-inkscape-stroke:none;paint-order:stroke fill markers" d="M108.184-7.526h1v1h-1v-1z" transform="rotate(90 51.522 -48.551)"/><path style="color:#000;fill:#000;-inkscape-stroke:none;paint-order:stroke fill markers" d="M108.184-7.526h1v1h-1z" transform="rotate(90 50.633 -47.661)"/><path style="color:#000;fill:#d3bd97;stroke-width:0;-inkscape-stroke:none;paint-order:stroke fill markers" d="M108.184-7.526h1v1h-1v-1z" transform="rotate(90 50.633 -47.661)"/><path style="color:#000;fill:#000;-inkscape-stroke:none;paint-order:stroke fill markers" d="M108.184-7.526h1v1h-1z" transform="rotate(90 49.743 -46.771)"/><path style="color:#000;fill:#d3bd97;stroke-width:0;-inkscape-stroke:none;paint-order:stroke fill markers" d="M108.184-7.526h1v1h-1v-1z" transform="rotate(90 49.743 -46.771)"/><path style="color:#000;fill:#000;-inkscape-stroke:none;paint-order:stroke fill markers" d="M108.184-7.526h1v1h-1z" transform="rotate(104.356 51.124 -34.873) scale(.99959)"/><path style="color:#000;fill:#d3bd97;stroke-width:0;-inkscape-stroke:none;paint-order:stroke fill markers" d="M108.184-7.526h1v1h-1v-1z" transform="rotate(104.356 51.124 -34.873) scale(.99959)"/><path style="color:#000;fill:#000;-inkscape-stroke:none;paint-order:stroke fill markers" d="M108.184-7.526h1v1h-1z" transform="matrix(-.59816 .8009 -.8009 -.59816 68.49 -75.724)"/><path style="color:#000;fill:#d3bd97;stroke-width:0;-inkscape-stroke:none;paint-order:stroke fill markers" d="M108.184-7.526h1v1h-1v-1z" transform="matrix(-.59816 .8009 -.8009 -.59816 68.49 -75.724)"/><path style="color:#000;fill:#000;-inkscape-stroke:none;paint-order:stroke fill markers" d="M108.184-7.526h1v1h-1z" transform="rotate(154.344 55.488 -6.696) scale(.9996)"/><path style="color:#000;fill:#d3bd97;stroke-width:0;-inkscape-stroke:none;paint-order:stroke fill markers" d="M108.184-7.526h1v1h-1v-1z" transform="rotate(154.344 55.488 -6.696) scale(.9996)"/><path style="color:#000;fill:#000;-inkscape-stroke:none;paint-order:stroke fill markers" d="M108.184-7.526h1v1h-1z" transform="rotate(-177.125 57.62 6.276) scale(.99958)"/><path style="color:#000;fill:#d3bd97;stroke-width:0;-inkscape-stroke:none;paint-order:stroke fill markers" d="M108.184-7.526h1v1h-1v-1z" transform="rotate(-177.125 57.62 6.276) scale(.99958)"/><path style="color:#000;fill:#000;-inkscape-stroke:none;paint-order:stroke fill markers" d="M108.184-7.526h1v1h-1z" transform="rotate(-154.344 59.15 16.677) scale(.9996)"/><path style="color:#000;fill:#d3bd97;stroke-width:0;-inkscape-stroke:none;paint-order:stroke fill markers" d="M108.184-7.526h1v1h-1v-1z" transform="rotate(-154.344 59.15 16.677) scale(.9996)"/><path style="color:#000;fill:#000;-inkscape-stroke:none;paint-order:stroke fill markers" d="M108.184-7.526h1v1h-1z" transform="matrix(-.59816 -.8009 .8009 -.59816 73.526 98.367)"/><path style="color:#000;fill:#d3bd97;stroke-width:0;-inkscape-stroke:none;paint-order:stroke fill markers" d="M108.184-7.526h1v1h-1v-1z" transform="matrix(-.59816 -.8009 .8009 -.59816 73.526 98.367)"/><path style="color:#000;fill:#000;-inkscape-stroke:none;paint-order:stroke fill markers" d="M108.184-7.526h1v1h-1z" transform="rotate(-104.356 63.512 44.808) scale(.99959)"/><path style="color:#000;fill:#d3bd97;stroke-width:0;-inkscape-stroke:none;paint-order:stroke fill markers" d="M108.184-7.526h1v1h-1v-1z" transform="rotate(-104.356 63.512 44.808) scale(.99959)"/><path style="color:#000;fill:#000;-inkscape-stroke:none;paint-order:stroke fill markers" d="M108.184-7.526h1v1h-1z" transform="rotate(-90 64.939 55.917)"/><path style="color:#000;fill:#d3bd97;stroke-width:0;-inkscape-stroke:none;paint-order:stroke fill markers" d="M108.184-7.526h1v1h-1v-1z" transform="rotate(-90 64.939 55.917)"/><path style="color:#000;fill:#000;-inkscape-stroke:none;paint-order:stroke fill markers" d="M108.184-7.526h1v1h-1z" transform="rotate(-90 64.049 55.027)"/><path style="color:#000;fill:#d3bd97;stroke-width:0;-inkscape-stroke:none;paint-order:stroke fill markers" d="M108.184-7.526h1v1h-1v-1z" transform="rotate(-90 64.049 55.027)"/><path style="color:#000;fill:#000;-inkscape-stroke:none;paint-order:stroke fill markers" d="M108.184-7.526h1v1h-1z" transform="rotate(-90 63.159 54.138)"/><path style="color:#000;fill:#d3bd97;stroke-width:0;-inkscape-stroke:none;paint-order:stroke fill markers" d="M108.184-7.526h1v1h-1v-1z" transform="rotate(-90 63.159 54.138)"/><path style="color:#000;fill:#000;-inkscape-stroke:none;paint-order:stroke fill markers" d="M108.184-7.526h1v1h-1z" transform="rotate(-90 62.269 53.248)"/><path style="color:#000;fill:#d3bd97;stroke-width:0;-inkscape-stroke:none;paint-order:stroke fill markers" d="M108.184-7.526h1v1h-1v-1z" transform="rotate(-90 62.269 53.248)"/><path style="color:#000;fill:#000;-inkscape-stroke:none;paint-order:stroke fill markers" d="M108.184-7.526h1v1h-1z" transform="rotate(-75.644 63.159 67.634) scale(.99959)"/><path style="color:#000;fill:#d3bd97;stroke-width:0;-inkscape-stroke:none;paint-order:stroke fill markers" d="M108.184-7.526h1v1h-1v-1z" transform="rotate(-75.644 63.159 67.634) scale(.99959)"/><path style="color:#000;fill:#000;-inkscape-stroke:none;paint-order:stroke fill markers" d="M108.184-7.526h1v1h-1z" transform="matrix(.59816 -.8009 .8009 .59816 -56.497 94.726)"/><path style="color:#000;fill:#d3bd97;stroke-width:0;-inkscape-stroke:none;paint-order:stroke fill markers" d="M108.184-7.526h1v1h-1v-1z" transform="matrix(.59816 -.8009 .8009 .59816 -56.497 94.726)"/><path style="color:#000;fill:#000;-inkscape-stroke:none;paint-order:stroke fill markers" d="M108.184-7.526h1v1h-1z" transform="rotate(-25.656 77.13 226.845) scale(.9996)"/><path style="color:#000;fill:#d3bd97;stroke-width:0;-inkscape-stroke:none;paint-order:stroke fill markers" d="M108.184-7.526h1v1h-1v-1z" transform="rotate(-25.656 77.13 226.845) scale(.9996)"/></g><path style="display:inline;fill:#a9b665;stroke:#000;stroke-width:0;paint-order:stroke fill markers" d="M11.997 1.5h2V4h-2V1.5z"/><path style="display:inline;fill:#d3bd97;stroke-width:0;paint-order:stroke fill markers" transform="matrix(0 -1 -1 0 0 0)" d="M-28.004-12.297h9.002v.3h-9.002z"/><path style="display:inline;fill:#d3bd97;stroke-width:0;paint-order:stroke fill markers" transform="scale(-1)" d="M-9.996-25.303H-.3v.3h-9.696Z"/><path style="display:inline;fill:#776b60;stroke-width:0;paint-order:stroke fill markers" d="M.5 19.202h11.297v5.601H.5Z"/><path style="display:inline;fill:#a9b665;stroke:#000;stroke-width:0;paint-order:stroke fill markers" transform="matrix(0 1 1 0 0 0)" d="M22.003.995h2v2.5h-2v-2.5z"/><path style="display:inline;fill:#776b60;stroke-width:0;paint-order:stroke fill markers" d="M25.998 1H34v3h-8z"/><g style="font-size:2.11667px;line-height:1.25;font-family:'Material Design Icons';-inkscape-font-specification:'Material Design Icons';display:inline;fill:#282828;fill-opacity:1;stroke-width:.264583"><path d="M48.756 1.16h.616v.264h-.351v.351h-.352v.356h-.355v.351h-.616v-.265h.351v-.35h.356V1.51h.351zm-.426.057-.488.488-.16-.161.487-.488-.161-.161h.483v.483Z" style="fill:#282828;fill-opacity:1" transform="translate(-18.528 .812)" aria-label="󱊽"/></g><path style="display:inline;fill:#776b60;stroke:#4d4d4d;stroke-width:0;paint-order:stroke fill markers" d="M21.298 13.502H39.5v5.707H21.298z"/><path style="display:inline;fill:#a9b665;stroke:#000;stroke-width:0;paint-order:stroke fill markers" d="M39 14.002h-2v2.5h2v-2.5zM36 14.002h-2v2.5h2v-2.5zM32.999 14.002h-2v2.5h2v-2.5zM29.998 14.002h-2v2.5h2v-2.5zM26.998 14.002h-2v2.5h2v-2.5z"/><path style="display:inline;fill:#d3bd97;stroke-width:0;paint-order:stroke fill markers" transform="scale(-1)" d="M-39.7-13.302h18.902v.3H-39.7zM-39.7-19.703h18.902v.3H-39.7zM-39.7-24.003h5.7v.3h-5.7z"/><path d="M6.148 21.209q.145 0 .248.103.104.104.104.253 0 .144-.104.248-.103.103-.248.103-.144 0-.248-.103-.103-.104-.103-.248 0-.15.103-.253.104-.103.248-.103zm.352.93q0 .104-.033.22-.05.173-.158.334l-.074-.426.083-.165q-.091-.012-.17-.012-.078 0-.17.012l.083.165-.074.426q-.107-.161-.157-.335-.033-.115-.033-.219-.161.046-.26.128-.096.079-.096.178v.352h1.414v-.352q0-.1-.095-.178-.095-.082-.26-.128z" aria-label="󰳣" style="font-weight:700;font-size:2.11667px;line-height:1.25;font-family:'Material Design Icons Desktop';-inkscape-font-specification:'Material Design Icons Desktop Bold';display:inline;fill:#282828;stroke-width:0"/><path style="display:inline;fill:#d3bd97;stroke-width:0;paint-order:stroke fill markers" transform="scale(-1)" d="M-6.996-31.604H-.3v.3h-6.696Z"/><path style="display:inline;fill:#776b60;stroke-width:0;paint-order:stroke fill markers" d="M.5 25.503h11.297v5.6H.5Z"/><path style="display:inline;fill:#a9b665;stroke:#000;stroke-width:0;paint-order:stroke fill markers" transform="matrix(0 1 1 0 0 0)" d="M28.304.995h2v2.5h-2v-2.5z"/><path d="M6.148 27.51q.145 0 .248.103.104.103.104.252 0 .145-.104.248-.103.104-.248.104-.144 0-.248-.104-.103-.103-.103-.248 0-.149.103-.252.104-.103.248-.103zm.352.93q0 .103-.033.219-.05.174-.158.335l-.074-.426.083-.165q-.091-.013-.17-.013-.078 0-.17.013l.083.165-.074.426q-.107-.161-.157-.335-.033-.116-.033-.22-.161.046-.26.13-.096.078-.096.177v.351h1.414v-.351q0-.1-.095-.178-.095-.083-.26-.128z" aria-label="󰳣" style="font-weight:700;font-size:2.11667px;line-height:1.25;font-family:'Material Design Icons Desktop';-inkscape-font-specification:'Material Design Icons Desktop Bold';display:inline;fill:#282828;stroke-width:0"/><path style="display:inline;fill:#d3bd97;stroke-width:0;paint-order:stroke fill markers" transform="scale(-1)" d="M-12.297-37.905H-.3v.3h-11.997Z"/><path style="display:inline;fill:#776b60;stroke-width:0;paint-order:stroke fill markers" d="M.5 31.804h11.297v5.6H.5Z"/><path style="display:inline;fill:#a9b665;stroke:#000;stroke-width:0;paint-order:stroke fill markers" transform="matrix(0 1 1 0 0 0)" d="M34.604.995h2v2.5h-2v-2.5z"/><path d="M6.148 33.81q.145 0 .248.104.104.103.104.252 0 .145-.104.248-.103.103-.248.103-.144 0-.248-.103-.103-.103-.103-.248 0-.149.103-.252.104-.103.248-.103zm.352.93q0 .104-.033.22-.05.173-.158.335l-.074-.426.083-.166q-.091-.012-.17-.012-.078 0-.17.012l.083.166-.074.426q-.107-.162-.157-.335-.033-.116-.033-.22-.161.046-.26.129-.096.078-.096.178v.351h1.414v-.351q0-.1-.095-.178-.095-.083-.26-.128z" aria-label="󰳣" style="font-weight:700;font-size:2.11667px;line-height:1.25;font-family:'Material Design Icons Desktop';-inkscape-font-specification:'Material Design Icons Desktop Bold';display:inline;fill:#282828;stroke-width:0"/><path style="display:inline;fill:#d3bd97;stroke-width:0;paint-order:stroke fill markers" transform="matrix(0 -1 -1 0 0 0)" d="M-33.004-12.297h3v.3h-3zM-37.605-12.297h2.6v.3h-2.6z"/><path style="display:inline;fill:#d3bd97;stroke-width:0;paint-order:stroke fill markers" transform="scale(-1)" d="M-11.996-31.604h3v.3h-3z"/><path style="display:inline;fill:#d3bd97;stroke-width:0;paint-order:stroke fill markers" transform="rotate(-90)" d="M-13.002 33.4H-8v.3h-5z"/><path style="display:inline;fill:#d3bd97;stroke-width:0;paint-order:stroke fill markers" d="M35.7 8.001h4v.3h-4z"/><path style="display:inline;fill:#d3bd97;stroke-width:0;paint-order:stroke fill markers" transform="rotate(-90)" d="M-13.002 27.099H-8v.3h-5z"/><path style="display:inline;fill:#d3bd97;stroke-width:0;paint-order:stroke fill markers" d="M29.399 8.001h4v.3h-4z"/><path style="display:inline;fill:#d3bd97;stroke-width:0;paint-order:stroke fill markers" transform="rotate(-90)" d="M-13.002 20.798H-8v.3h-5z"/><path style="display:inline;fill:#d3bd97;stroke-width:0;paint-order:stroke fill markers" d="M23.098 8.001h4v.3h-4Z"/><path style="display:inline;fill:#776b60;stroke:#4d4d4d;stroke-width:0;paint-order:stroke fill markers" d="M33.9 8.501h5.6v4.3h-5.6zM27.599 8.501h5.6v4.3h-5.6zM21.298 8.501h5.6v4.3h-5.6Z"/><path d="M23.614 10.3q-.046 0-.079.033-.029.029-.029.074v.509h-.045q-.108 0-.186.078-.079.079-.079.186h-.087q0-.132.087-.231.091-.103.22-.12v-.95q0-.046-.034-.075-.029-.033-.074-.033-.046 0-.079.033-.033.029-.033.074v.686h-.087v-.86q0-.045-.033-.078t-.078-.033q-.046 0-.079.033t-.033.079v.86H22.8v-.728q0-.046-.033-.079t-.078-.033q-.046 0-.079.033-.029.033-.029.079v.814h-.09v-.55q0-.045-.034-.078-.029-.033-.074-.033-.046 0-.079.033t-.033.078v.881q0 .198.095.368.1.165.265.26.17.1.368.1.198 0 .364-.1.17-.095.264-.26.1-.17.1-.368v-.575q0-.045-.034-.074-.033-.033-.078-.033zM29.739 10.3q-.046 0-.079.033-.029.029-.029.074v.509h-.045q-.107 0-.186.078-.079.079-.079.186h-.086q0-.132.086-.231.091-.103.22-.12v-.95q0-.046-.034-.075-.028-.033-.074-.033-.045 0-.079.033-.033.029-.033.074v.686h-.086v-.86q0-.045-.033-.078-.034-.033-.079-.033t-.079.033q-.033.033-.033.079v.86h-.086v-.728q0-.046-.034-.079-.033-.033-.078-.033-.046 0-.079.033-.029.033-.029.079v.814h-.09v-.55q0-.045-.034-.078-.029-.033-.074-.033t-.079.033q-.033.033-.033.078v.881q0 .198.095.368.1.165.265.26.17.1.368.1.198 0 .364-.1.17-.095.264-.26.1-.17.1-.368v-.575q0-.045-.033-.074-.034-.033-.079-.033zM35.74 10.3q-.046 0-.079.033-.029.029-.029.074v.509h-.045q-.108 0-.186.078-.079.079-.079.186h-.087q0-.132.087-.231.091-.103.22-.12v-.95q0-.046-.034-.075-.029-.033-.074-.033-.046 0-.079.033-.033.029-.033.074v.686h-.087v-.86q0-.045-.033-.078t-.078-.033q-.046 0-.079.033t-.033.079v.86h-.087v-.728q0-.046-.033-.079t-.078-.033q-.046 0-.079.033-.029.033-.029.079v.814h-.09v-.55q0-.045-.034-.078-.029-.033-.074-.033-.046 0-.079.033t-.033.078v.881q0 .198.095.368.1.165.265.26.17.1.368.1.198 0 .364-.1.169-.095.264-.26.1-.17.1-.368v-.575q0-.045-.034-.074-.033-.033-.078-.033z" aria-label="󰩏" style="font-weight:700;font-size:2.11667px;line-height:1.25;font-family:'Material Design Icons Desktop';-inkscape-font-specification:'Material Design Icons Desktop Bold';display:inline;fill:#282828;stroke-width:0"/><path style="display:inline;fill:#d3bd97;stroke-width:0;paint-order:stroke fill markers" transform="matrix(0 1 1 0 0 0)" d="M13.302 20.798h2.7v.3h-2.7zM19.703 20.798h4v.3h-4z"/><path d="M23.614 15.857q-.046 0-.079.033-.029.029-.029.074v.509h-.045q-.108 0-.186.079-.079.078-.079.186h-.087q0-.133.087-.232.091-.103.22-.12v-.95q0-.046-.034-.075-.029-.033-.074-.033-.046 0-.079.033-.033.029-.033.074v.687h-.087v-.86q0-.046-.033-.079t-.078-.033q-.046 0-.079.033t-.033.079v.86H22.8v-.728q0-.046-.033-.079t-.078-.033q-.046 0-.079.033-.029.033-.029.079v.814h-.09v-.55q0-.045-.034-.078-.029-.033-.074-.033-.046 0-.079.033t-.033.079v.88q0 .199.095.368.1.165.265.26.17.1.368.1.198 0 .364-.1.17-.095.264-.26.1-.17.1-.368v-.575q0-.045-.034-.074-.033-.033-.078-.033z" aria-label="󰩏" style="font-weight:700;font-size:2.11667px;line-height:1.25;font-family:'Material Design Icons Desktop';-inkscape-font-specification:'Material Design Icons Desktop Bold';display:inline;fill:#282828;stroke-width:0"/><path style="display:inline;fill:#d3bd97;stroke-width:0;paint-order:stroke fill markers" transform="rotate(90)" d="M19.703-30.399h4v.3h-4z"/><path style="display:inline;fill:#7daea3;stroke-width:0;paint-order:stroke fill markers" d="M39.7 21.703h.3v2h-.3zM39.7 19.703h.3v1h-.3z"/><path style="display:inline;fill:#d3bd97;stroke-width:0;paint-order:stroke fill markers" transform="scale(-1)" d="M-31.999-24.003h6v.3h-6zM-24-24.003h3.202v.3H-24z"/><path style="display:inline;fill:#776b60;stroke-width:0;paint-order:stroke fill markers" d="M21.298 19.902h8.6v3.601h-8.6Z"/><g style="font-size:2.11667px;line-height:1.25;font-family:'Material Design Icons';-inkscape-font-specification:'Material Design Icons';display:inline;fill:#282828;fill-opacity:1;fill-rule:nonzero;stroke-width:.264583"><path d="M24.298-19.617q.074 0 .124.054.054.05.054.124 0 .07-.054.124-.05.05-.124.05-.075 0-.128-.05-.05-.054-.05-.124 0-.074.05-.124.053-.054.128-.054zm-.132.439h.264q.075 0 .124.053.054.05.054.124v.484h-.132v.662h-.356v-.662h-.132v-.484q0-.074.05-.124.053-.053.128-.053z" style="fill:#282828;fill-opacity:1;fill-rule:nonzero" transform="translate(1.3 40.439)" aria-label="󰙍"/></g><path style="display:inline;fill:#776b60;stroke-width:0;paint-order:stroke fill markers" d="M30.599 19.905H39.5v3.601h-8.901z"/><g style="font-size:2.11667px;line-height:1.25;font-family:'Material Design Icons';-inkscape-font-specification:'Material Design Icons';display:inline;fill:#282828;fill-opacity:1;fill-rule:nonzero;stroke-width:.264583"><path d="M27.429-16.401q.074 0 .124.053.054.05.054.124 0 .07-.054.124-.05.05-.124.05t-.128-.05q-.05-.053-.05-.124 0-.074.05-.124.054-.053.128-.053zm-.132 1.76v-.528h-.265l.228-.67q.016-.054.062-.087.05-.037.107-.037.058 0 .103.037.05.033.067.087l.227.67h-.265v.529z" style="fill:#282828;fill-opacity:1;fill-rule:nonzero" transform="translate(7.62 37.226)" aria-label="󰙉"/></g><path style="display:inline;fill:#7daea3;stroke-width:0;paint-order:stroke fill markers" d="M0 32.004h.3v2H0ZM0 35.004h.3v2H0ZM0 16.002h.3v2H0ZM0 13.002h.3v2H0ZM0 10.001h.3v2H0ZM0 7h.3v2.001H0ZM0 4h.3v2H0ZM0 1h.3v2H0Z"/><path style="display:inline;fill:#7daea3;stroke-width:0;paint-order:stroke fill markers" transform="rotate(90)" d="M0-2.995h.3v2H0ZM0-5.996h.3v2H0ZM0-8.996h.3v2H0ZM0-11.997h.3v2H0ZM0-14.997h.3v2H0ZM0-17.997h.3v2H0ZM0-20.998h.3v2H0ZM0-23.998h.3v2H0ZM0-26.998h.3v2H0ZM0-29.999h.3v2H0Z"/><path style="display:inline;fill:none;stroke:#e78a4e;stroke-width:.265;stroke-linecap:butt;stroke-linejoin:miter;stroke-miterlimit:4;stroke-dasharray:.53,.265;stroke-dashoffset:.106;stroke-opacity:1;paint-order:normal" d="M.3.3h39.4v49.568H.3Z"/><path style="display:inline;fill:#a9b665;stroke:#000;stroke-width:0;paint-order:stroke fill markers" d="M33.2 10.302h-2v2.5h2v-2.5zM26.899 10.302h-2v2.5h2v-2.5zM39.5 10.302h-2v2.5h2v-2.5z"/><path style="display:inline;fill:#d3bd97;stroke-width:0;paint-order:stroke fill markers" transform="matrix(0 1 1 0 0 0)" d="M18.002 20.798h1.4v.3h-1.4z"/><path style="display:inline;fill:#d3869b;stroke:#776b60;stroke-width:0" transform="scale(-1 1)" d="M-1.3 19.002h1v1h-1Z"/><path d="M.969 20.887q.087 0 .132-.034.044-.033.044-.087v-.011q0-.06-.041-.095-.041-.037-.114-.037-.069 0-.129.035-.059.033-.1.097l-.15-.14q.069-.09.16-.138.092-.047.228-.047.12 0 .208.036.09.037.14.103.049.067.049.154 0 .102-.062.169-.06.065-.154.08v.01q.106.019.172.089.065.068.065.178 0 .098-.054.173-.054.073-.153.114-.097.04-.227.04-.154 0-.25-.057-.097-.06-.16-.156l.177-.137q.041.075.097.116.055.04.141.04.084 0 .13-.04.048-.04.048-.11v-.01q0-.067-.053-.102-.052-.035-.146-.035H.864v-.198z" aria-label="3" style="font-weight:700;font-size:1.5875px;line-height:1.25;font-family:'iA Writer Duospace';-inkscape-font-specification:'iA Writer Duospace Bold';display:inline;fill:#ea6962;stroke-width:.264583"/><path d="m23.456 13.729-.025.35h.014q.038-.084.097-.128.058-.046.155-.046.092 0 .169.043.077.041.123.122.046.08.046.187 0 .113-.05.202-.051.089-.15.14-.096.049-.231.049-.272 0-.402-.213l.173-.136q.043.073.095.114.054.041.135.041.088 0 .134-.048.046-.047.046-.13v-.012q0-.078-.048-.123-.046-.044-.125-.044-.107 0-.177.078l-.195-.027.041-.627h.688v.208z" aria-label="5" style="font-weight:700;font-size:1.5875px;line-height:1.25;font-family:'iA Writer Duospace';-inkscape-font-specification:'iA Writer Duospace Bold';display:inline;fill:#ea6962;stroke-width:.264583"/><path d="M23.65 12.113q.088 0 .132-.034.045-.033.045-.087v-.011q0-.06-.042-.095-.04-.037-.114-.037-.068 0-.128.035-.06.033-.1.097l-.151-.14q.07-.09.16-.138.092-.048.229-.048.119 0 .208.037.09.036.14.103.048.067.048.154 0 .102-.061.168-.06.065-.154.081v.01q.106.019.171.089.065.068.065.178 0 .098-.054.173-.054.073-.152.114-.097.04-.227.04-.154 0-.251-.058t-.159-.155l.176-.137q.042.075.097.116.056.04.142.04.084 0 .13-.04.047-.04.047-.11v-.01q0-.067-.052-.102-.052-.035-.146-.035h-.103v-.198z" aria-label="3" style="font-weight:700;font-size:1.5875px;line-height:1.25;font-family:'iA Writer Duospace';-inkscape-font-specification:'iA Writer Duospace Bold';display:inline;fill:#ea6962;stroke-width:.264583"/><path style="display:inline;fill:#7daea3;stroke-width:0;paint-order:stroke fill markers" transform="rotate(90)" d="M49.85-39h.3v2h-.3zM49.85-36h.3v2h-.3zM49.85-33h.3v2.001h-.3zM49.85-29.999h.3v2h-.3zM49.85-26.998h.3v2h-.3zM49.85-23.998h.3v2h-.3zM49.85-20.998h.3v2h-.3zM49.85-17.997h.3v2h-.3zM49.85-14.997h.3v2h-.3zM49.85-11.996h.3v2h-.3zM49.85-8.996h.3v2h-.3zM49.85-5.996h.3v2h-.3zM49.85-2.995h.3v2h-.3z"/><path style="display:inline;fill:none;stroke:#ea6962;stroke-width:.1;stroke-linecap:butt;stroke-linejoin:miter;stroke-miterlimit:4;stroke-dasharray:none;stroke-opacity:1" d="M.995 35.604H.3v-6.6h.695H.3v-6.001h.695H.3v-4"/><path style="display:inline;fill:#d3869b;stroke:#776b60;stroke-width:0" transform="scale(-1 1)" d="M-22.098 13.302h1v1h-1z"/><path style="display:inline;fill:none;stroke:#ea6962;stroke-width:.1;stroke-linecap:butt;stroke-linejoin:miter;stroke-miterlimit:4;stroke-dasharray:none;stroke-opacity:1" d="M21.098 13.302h4.9v.7-.7h3v.7-.7H32v.7-.7h3v.7-.7h3v.7"/><path style="display:inline;fill:#d3869b;stroke:#776b60;stroke-width:0" transform="scale(-1 1)" d="M-22.098 12.002h1v1h-1z"/><path style="display:inline;fill:none;stroke:#ea6962;stroke-width:.1;stroke-linecap:butt;stroke-linejoin:miter;stroke-miterlimit:4;stroke-dasharray:none;stroke-opacity:1" d="M22.098 13.002h3.9v-.2.2H32v-.2.2h6v-.2"/><path style="display:inline;fill:#d3869b;stroke:#776b60;stroke-width:0" transform="scale(-1 1)" d="M-14.997 3.7h1v1h-1z"/><path style="display:inline;fill:none;stroke:#ea6962;stroke-width:.1;stroke-linecap:butt;stroke-linejoin:miter;stroke-miterlimit:4;stroke-dasharray:none;stroke-opacity:1" d="M13.997 4.7h-1V4"/><path d="M13.158 5.936h.282v-.704l-.257.142-.09-.172.335-.182h.25v.916h.251v.192h-.771Z" aria-label="1" style="font-weight:700;font-size:1.5875px;line-height:1.25;font-family:'iA Writer Duospace';-inkscape-font-specification:'iA Writer Duospace Bold';display:inline;fill:#ea6962;stroke-width:.264583"/><path style="display:inline;fill:#7daea3;stroke-width:0;paint-order:stroke fill markers" transform="rotate(90)" d="M0-33h.3v2.001H0ZM0-36h.3v2H0ZM0-39h.3v2H0Z"/><path style="display:inline;fill:#7daea3;stroke-width:0;paint-order:stroke fill markers" transform="scale(-1)" d="M-40-3h.3v2h-.3zM-40-6h.3v2h-.3zM-40-10.032h.3v1.731h-.3zM-40-13.002h.3v2h-.3zM-40-16.002h.3v2h-.3zM-40-19.002h.3v2h-.3zM-40-47.006h.3v2h-.3zM-40-44.006h.3v2h-.3zM-40-41.005h.3v2h-.3zM-40-38.005h.3v2h-.3zM-40-35.004h.3v2h-.3zM-40-32.004h.3v2h-.3zM-40-29.004h.3v2h-.3zM-40-26.003h.3v2h-.3zM-.3-49.006H0v2h-.3ZM-.3-46.006H0v2h-.3ZM-.3-43.005H0v2h-.3ZM-.3-40.005H0v2h-.3Z"/></svg>