<svg width="auto" height="auto" viewBox="0 0 40 50" xmlns="http://www.w3.org/2000/svg"><path style="display:inline;fill:#282828;stroke:#4d4d4d;stroke-width:0" transform="rotate(90)" d="M0-40h50V0H0Z"/><path d="M40 1H0m40 1H0m40 1H0m40 1H0m40 1H0m40 1H0m40 1H0m40 1.001H0m40 1H0m40 1H0m40 1H0m40 1H0m40 1H0m40 1H0m40 1H0m40 1.001H0m40 1H0m40 1H0m40 1H0m40 1H0m40 1H0m40 1H0m40 1H0m40 1.001H0m40 1H0m40 1H0m40 1H0m40 1H0m40 1H0m40 1H0m40 1H0m40 1.001H0m40 1H0m40 1H0m40 1H0m40 1H0m40 1H0m40 1H0m40 1H0m40 1.001H0m40 1H0m40 1H0m40 1H0m40 1H0m40 1H0m40 1H0m40 1H0m40 1.001H0m40 1H0M39 0v50M38 0v50M37 0v50M36 0v50M35 0v50M34 0v50M33 0v50M31.998 0v50m-1-50v50m-1-50v50m-1-50v50m-1-50v50m-1-50v50m-1-50v50m-1-50v50M23.997 0v50m-1-50v50m-1-50v50m-1-50v50m-1-50v50m-1-50v50m-1-50v50m-1-50v50M15.996 0v50m-1-50v50m-1-50v50m-1-50v50m-1-50v50m-1-50v50m-1-50v50m-1-50v50M7.995 0v50m-1-50v50m-1-50v50m-1-50v50m-1-50v50m-1-50v50m-1-50v50m-1-50v50" style="display:inline;fill:none;stroke:#776b60;stroke-width:.0529167px;stroke-opacity:1"/><path style="display:inline;fill:#d3bd97;stroke-width:0;paint-order:stroke fill markers" d="M0 0h40v.3H0Z"/><path style="display:inline;fill:#d3bd97;stroke-width:0;paint-order:stroke fill markers" transform="rotate(90)" d="M0-40h50v.3H0Z"/><path style="display:inline;fill:#d3bd97;stroke-width:0;paint-order:stroke fill markers" transform="scale(-1)" d="M-40-50H0v.3h-40Z"/><path style="display:inline;fill:#d3bd97;stroke-width:0;paint-order:stroke fill markers" transform="rotate(-90)" d="M-50 0H0v.3h-50Z"/><path style="display:inline;fill:#776b60;stroke-width:0;paint-order:stroke fill markers" d="M25.998 1H34v3h-8z"/><path d="M30.22 1.98h.616v.264h-.351v.351h-.352v.356h-.355v.351h-.616v-.264h.351v-.352h.356v-.355h.35zm-.897.206.488-.488.16.162-.487.487.161.162h-.483v-.484Z" aria-label="󱊾" style="font-weight:700;font-size:2.11667px;line-height:1.25;font-family:'Material Design Icons Desktop';-inkscape-font-specification:'Material Design Icons Desktop Bold';display:inline;fill:#282828;stroke-width:.264583"/><path style="display:inline;fill:none;stroke:#e78a4e;stroke-width:.265;stroke-linecap:butt;stroke-linejoin:miter;stroke-miterlimit:4;stroke-dasharray:.53,.265;stroke-dashoffset:.106;stroke-opacity:1;paint-order:normal" d="M.3.3h39.4v49.4H.3z"/><g style="display:inline"><path style="display:inline;fill:#d3bd97;stroke-width:0;paint-order:stroke fill markers" d="M172.93 8.176h7.701v.3h-7.7z" transform="translate(-140.931 1.32)"/><path style="fill:#a9b665;stroke-width:0" d="M178.432 12.177h2v2.5h-2zM175.936 12.177h2v2.5h-2zM173.436 12.177h2v2.5h-2zM175.936 8.677h2v2.5h-2zM178.431 8.676h2v2.5h-2z" transform="translate(-140.931 1.32)"/><path style="display:inline;fill:#d3bd97;stroke-width:0;paint-order:stroke fill markers" transform="matrix(1 0 0 -1 -140.931 1.32)" d="M172.93-15.177h7.701v.3h-7.7z"/><path style="display:inline;fill:#d3bd97;stroke-width:0;paint-order:stroke fill markers" transform="matrix(0 1 1 0 -140.931 1.32)" d="M10.477 172.93h4.4v.3h-4.4z"/></g><g style="display:inline"><path style="display:inline;fill:#d3bd97;stroke-width:0;paint-order:stroke fill markers" d="M172.93 8.176h7.701v.3h-7.7z" transform="translate(-140.931 8.02)"/><path style="fill:#a9b665;stroke-width:0" d="M178.432 12.177h2v2.5h-2zM175.936 12.177h2v2.5h-2zM173.436 12.177h2v2.5h-2zM175.936 8.677h2v2.5h-2zM178.431 8.676h2v2.5h-2z" transform="translate(-140.931 8.02)"/><path style="display:inline;fill:#d3bd97;stroke-width:0;paint-order:stroke fill markers" transform="matrix(1 0 0 -1 -140.931 8.02)" d="M172.93-15.177h7.701v.3h-7.7z"/><path style="display:inline;fill:#d3bd97;stroke-width:0;paint-order:stroke fill markers" transform="matrix(0 1 1 0 -140.931 8.02)" d="M10.477 172.93h4.4v.3h-4.4z"/></g><g style="display:inline"><path style="display:inline;fill:#d3bd97;stroke-width:0;paint-order:stroke fill markers" d="M172.93 8.176h7.701v.3h-7.7z" transform="translate(-140.931 14.72)"/><path style="fill:#a9b665;stroke-width:0" d="M178.432 12.177h2v2.5h-2zM175.936 12.177h2v2.5h-2zM173.436 12.177h2v2.5h-2zM175.936 8.677h2v2.5h-2zM178.431 8.676h2v2.5h-2z" transform="translate(-140.931 14.72)"/><path style="display:inline;fill:#d3bd97;stroke-width:0;paint-order:stroke fill markers" transform="matrix(1 0 0 -1 -140.931 14.72)" d="M172.93-15.177h7.701v.3h-7.7z"/><path style="display:inline;fill:#d3bd97;stroke-width:0;paint-order:stroke fill markers" transform="matrix(0 1 1 0 -140.931 14.72)" d="M10.477 172.93h4.4v.3h-4.4z"/></g><g style="display:inline"><path style="display:inline;fill:#d3bd97;stroke-width:0;paint-order:stroke fill markers" d="M172.93 8.176h7.701v.3h-7.7z" transform="translate(-140.931 21.422)"/><path style="fill:#a9b665;stroke-width:0" d="M178.432 12.177h2v2.5h-2zM175.936 12.177h2v2.5h-2zM173.436 12.177h2v2.5h-2zM175.936 8.677h2v2.5h-2zM178.431 8.676h2v2.5h-2z" transform="translate(-140.931 21.422)"/><path style="display:inline;fill:#d3bd97;stroke-width:0;paint-order:stroke fill markers" transform="matrix(1 0 0 -1 -140.931 21.422)" d="M172.93-15.177h7.701v.3h-7.7z"/><path style="display:inline;fill:#d3bd97;stroke-width:0;paint-order:stroke fill markers" transform="matrix(0 1 1 0 -140.931 21.422)" d="M10.477 172.93h4.4v.3h-4.4z"/></g><g style="display:inline"><path style="display:inline;fill:#d3bd97;stroke-width:0;paint-order:stroke fill markers" d="M172.93 8.176h7.701v.3h-7.7z" transform="translate(-140.931 28.122)"/><path style="fill:#a9b665;stroke-width:0" d="M178.432 12.177h2v2.5h-2zM175.936 12.177h2v2.5h-2zM173.436 12.177h2v2.5h-2zM175.936 8.677h2v2.5h-2zM178.431 8.676h2v2.5h-2z" transform="translate(-140.931 28.122)"/><path style="display:inline;fill:#d3bd97;stroke-width:0;paint-order:stroke fill markers" transform="matrix(1 0 0 -1 -140.931 28.122)" d="M172.93-15.177h7.701v.3h-7.7z"/><path style="display:inline;fill:#d3bd97;stroke-width:0;paint-order:stroke fill markers" transform="matrix(0 1 1 0 -140.931 28.122)" d="M10.477 172.93h4.4v.3h-4.4z"/></g><g style="display:inline"><path style="display:inline;fill:#d3bd97;stroke-width:0;paint-order:stroke fill markers" d="M172.93 8.176h7.701v.3h-7.7z" transform="translate(-140.931 34.823)"/><path style="fill:#a9b665;stroke-width:0" d="M178.432 12.177h2v2.5h-2zM175.936 12.177h2v2.5h-2zM173.436 12.177h2v2.5h-2zM175.936 8.677h2v2.5h-2zM178.431 8.676h2v2.5h-2z" transform="translate(-140.931 34.823)"/><path style="display:inline;fill:#d3bd97;stroke-width:0;paint-order:stroke fill markers" transform="matrix(1 0 0 -1 -140.931 34.823)" d="M172.93-15.177h7.701v.3h-7.7z"/><path style="display:inline;fill:#d3bd97;stroke-width:0;paint-order:stroke fill markers" transform="matrix(0 1 1 0 -140.931 34.823)" d="M10.477 172.93h4.4v.3h-4.4z"/></g><g style="display:inline"><path style="display:inline;fill:#d3bd97;stroke-width:0;paint-order:stroke fill markers" d="M172.93 8.176h7.701v.3h-7.7z" transform="rotate(180 90.466 17.64)"/><path style="fill:#a9b665;stroke-width:0" d="M178.432 12.177h2v2.5h-2zM175.936 12.177h2v2.5h-2zM173.436 12.177h2v2.5h-2zM175.936 8.677h2v2.5h-2zM178.431 8.676h2v2.5h-2z" transform="rotate(180 90.466 17.64)"/><path style="display:inline;fill:#d3bd97;stroke-width:0;paint-order:stroke fill markers" transform="matrix(-1 0 0 1 180.931 35.28)" d="M172.93-15.177h7.701v.3h-7.7z"/><path style="display:inline;fill:#d3bd97;stroke-width:0;paint-order:stroke fill markers" transform="matrix(0 -1 -1 0 180.931 35.28)" d="M10.477 172.93h4.4v.3h-4.4z"/></g><g style="display:inline"><path style="display:inline;fill:#d3bd97;stroke-width:0;paint-order:stroke fill markers" d="M172.93 8.176h7.701v.3h-7.7z" transform="rotate(180 90.466 14.29)"/><path style="fill:#a9b665;stroke-width:0" d="M178.432 12.177h2v2.5h-2zM175.936 12.177h2v2.5h-2zM173.436 12.177h2v2.5h-2zM175.936 8.677h2v2.5h-2zM178.431 8.676h2v2.5h-2z" transform="rotate(180 90.466 14.29)"/><path style="display:inline;fill:#d3bd97;stroke-width:0;paint-order:stroke fill markers" transform="matrix(-1 0 0 1 180.931 28.579)" d="M172.93-15.177h7.701v.3h-7.7z"/><path style="display:inline;fill:#d3bd97;stroke-width:0;paint-order:stroke fill markers" transform="matrix(0 -1 -1 0 180.931 28.579)" d="M10.477 172.93h4.4v.3h-4.4z"/></g><g style="display:inline"><path style="display:inline;fill:#d3bd97;stroke-width:0;paint-order:stroke fill markers" d="M172.93 8.176h7.701v.3h-7.7z" transform="rotate(180 90.466 10.939)"/><path style="fill:#a9b665;stroke-width:0" d="M178.432 12.177h2v2.5h-2zM175.936 12.177h2v2.5h-2zM173.436 12.177h2v2.5h-2zM175.936 8.677h2v2.5h-2zM178.431 8.676h2v2.5h-2z" transform="rotate(180 90.466 10.939)"/><path style="display:inline;fill:#d3bd97;stroke-width:0;paint-order:stroke fill markers" transform="matrix(-1 0 0 1 180.931 21.878)" d="M172.93-15.177h7.701v.3h-7.7z"/><path style="display:inline;fill:#d3bd97;stroke-width:0;paint-order:stroke fill markers" transform="matrix(0 -1 -1 0 180.931 21.878)" d="M10.477 172.93h4.4v.3h-4.4z"/></g><g style="display:inline"><path style="display:inline;fill:#d3bd97;stroke-width:0;paint-order:stroke fill markers" d="M172.93 8.176h7.701v.3h-7.7z" transform="rotate(180 90.466 7.589)"/><path style="fill:#a9b665;stroke-width:0" d="M178.432 12.177h2v2.5h-2zM175.936 12.177h2v2.5h-2zM173.436 12.177h2v2.5h-2zM175.936 8.677h2v2.5h-2zM178.431 8.676h2v2.5h-2z" transform="rotate(180 90.466 7.589)"/><path style="display:inline;fill:#d3bd97;stroke-width:0;paint-order:stroke fill markers" transform="matrix(-1 0 0 1 180.931 15.177)" d="M172.93-15.177h7.701v.3h-7.7z"/><path style="display:inline;fill:#d3bd97;stroke-width:0;paint-order:stroke fill markers" transform="matrix(0 -1 -1 0 180.931 15.177)" d="M10.477 172.93h4.4v.3h-4.4z"/></g><path style="display:inline;fill:#d3bd97;stroke-width:0;paint-order:stroke fill markers" transform="rotate(-90)" d="M-29.004 7.701h1.901v.3h-1.9z"/><path style="display:inline;fill:#d3bd97;stroke-width:0;paint-order:stroke fill markers" d="M.3 32.004h7.696v.3H.3Z"/><path style="display:inline;fill:#d3bd97;stroke-width:0;paint-order:stroke fill markers" transform="rotate(-90)" d="M-32.004 7.701h1v.3h-1zM-34.205 7.696h1.901v.3h-1.9z"/><path style="display:inline;fill:#d3bd97;stroke-width:0;paint-order:stroke fill markers" d="M.295 37.205h16.702v.3H.295Z"/><path style="display:inline;fill:#d3bd97;stroke-width:0;paint-order:stroke fill markers" transform="rotate(-90)" d="M-37.205 7.696h1v.3h-1z"/><path style="display:inline;fill:#776b60;stroke-width:0;paint-order:stroke fill markers" d="M.497 27.3h7.007v4.507H.497ZM.492 32.504h7.007v4.508H.492Z"/><path style="display:inline;fill:#7daea3;stroke-width:0;paint-order:stroke fill markers" transform="rotate(90)" d="M49.7-39h.3v2h-.3zM49.7-36h.3v2h-.3zM49.7-33h.3v2.001h-.3zM49.7-29.999h.3v2h-.3zM49.7-26.998h.3v2h-.3zM49.7-23.998h.3v2h-.3zM49.7-20.998h.3v2h-.3zM49.7-17.997h.3v2h-.3zM49.7-14.997h.3v2h-.3zM49.7-11.996h.3v2h-.3zM49.7-8.996h.3v2h-.3zM49.7-5.996h.3v2h-.3zM49.7-2.995h.3v2h-.3zM0-39h.3v2H0ZM0-36h.3v2H0ZM0-33h.3v2.001H0ZM0-29.999h.3v2H0ZM0-26.998h.3v2H0ZM0-23.998h.3v2H0ZM0-20.998h.3v2H0ZM0-17.997h.3v2H0ZM0-14.997h.3v2H0ZM0-11.996h.3v2H0ZM0-8.996h.3v2H0ZM0-5.996h.3v2H0ZM0-2.995h.3v2H0Z"/><path style="display:inline;fill:#7daea3;stroke-width:0;paint-order:stroke fill markers" transform="scale(-1)" d="M-40-15.002h.3v2h-.3zM-40-12.002h.3v2h-.3zM-40-21.497h.3v2h-.3zM-40-18.497h.3v2h-.3zM-40-28.198h.3v2h-.3zM-40-25.198h.3v2h-.3zM-40-34.899h.3v2h-.3zM-40-31.898h.3v2h-.3zM-40-41.6h.3v2h-.3zM-40-38.599h.3v2h-.3zM-40-48.3h.3v2h-.3zM-40-45.3h.3v2h-.3zM-.3-32.004H0v2h-.3ZM-.3-37.205H0v1.96h-.3ZM-.3-34.265H0v1.961h-.3ZM-.3-25.403H0v2h-.3ZM-.3-22.402H0v2h-.3ZM-.3-18.702H0v2h-.3ZM-.3-15.702H0v2h-.3ZM-.3-12.001H0v2h-.3ZM-.3-9H0v2h-.3ZM-.3-5.3H0v2h-.3ZM-.3-2.3H0v2h-.3ZM-.3-29.103H0v2h-.3ZM-40-9.001h.3v2h-.3zM-40-6h.3v2h-.3zM-40-3h.3v2h-.3z"/><path style="display:inline;fill:#d3bd97;stroke-width:0;paint-order:stroke fill markers" transform="rotate(-90)" d="M-49.7 16.697h9.695v.3H-49.7z"/><path style="display:inline;fill:#776b60;stroke-width:0;paint-order:stroke fill markers" d="M.5 37.705h15.997V49.5H.5Z"/><g style="font-weight:700;font-size:1.5875px;line-height:1.25;font-family:'Material Design Icons Desktop';-inkscape-font-specification:'Material Design Icons Desktop Bold';display:inline;fill:#282828;fill-opacity:1;stroke-width:.264583"><path d="M134.002 44.215h1.19v-.133h-1.19zm1.19-.859h-.133v-.198h.133zm0-.332h-1.06v.66q0 .112.077.19.078.077.19.077h.396q.109 0 .186-.077.078-.078.078-.19v-.198h.133q.053 0 .09-.037.04-.04.04-.093v-.198q0-.056-.04-.093-.037-.04-.09-.04z" style="fill:#282828;fill-opacity:1" transform="translate(-126.163 -.017)" aria-label="󰅶"/></g><g style="display:inline"><path d="m142.764-1.88-.025.35h.014q.038-.084.097-.128.058-.046.155-.046.092 0 .169.043.077.041.123.122.046.08.046.187 0 .113-.05.202-.051.089-.15.14-.096.049-.231.049-.272 0-.402-.213l.173-.136q.043.073.095.114.054.041.135.041.087 0 .133-.048.046-.047.046-.13v-.012q0-.078-.047-.123-.046-.044-.126-.044-.106 0-.176.078l-.195-.027.041-.627h.688v.208z" transform="translate(-140.931 9.526)" aria-label="5" style="font-weight:700;font-size:1.5875px;line-height:1.25;font-family:'iA Writer Duospace';-inkscape-font-specification:'iA Writer Duospace Bold';display:inline;fill:#ea6962;stroke-width:.264583"/><path style="display:inline;fill:#d3869b;stroke:#776b60;stroke-width:0" transform="matrix(-1 0 0 1 -140.931 9.526)" d="M-142.231-2.525h1v1h-1z"/><path style="fill:none;stroke:#ea6962;stroke-width:.1;stroke-linecap:butt;stroke-linejoin:miter;stroke-miterlimit:4;stroke-dasharray:none;stroke-opacity:1" d="M147.427-2.325v-.2h-2.5v.2-.2h-2.496v.2-.2h-1.2v6.4h1.2v-.2.2h2.496v-.2" transform="translate(-140.931 9.526)"/></g><g style="display:inline"><path d="m142.764-1.88-.025.35h.014q.038-.084.097-.128.058-.046.155-.046.092 0 .169.043.077.041.123.122.046.08.046.187 0 .113-.05.202-.051.089-.15.14-.096.049-.231.049-.272 0-.402-.213l.173-.136q.043.073.095.114.054.041.135.041.087 0 .133-.048.046-.047.046-.13v-.012q0-.078-.047-.123-.046-.044-.126-.044-.106 0-.176.078l-.195-.027.041-.627h.688v.208z" transform="translate(-140.931 16.226)" aria-label="5" style="font-weight:700;font-size:1.5875px;line-height:1.25;font-family:'iA Writer Duospace';-inkscape-font-specification:'iA Writer Duospace Bold';display:inline;fill:#ea6962;stroke-width:.264583"/><path style="display:inline;fill:#d3869b;stroke:#776b60;stroke-width:0" transform="matrix(-1 0 0 1 -140.931 16.226)" d="M-142.231-2.525h1v1h-1z"/><path style="fill:none;stroke:#ea6962;stroke-width:.1;stroke-linecap:butt;stroke-linejoin:miter;stroke-miterlimit:4;stroke-dasharray:none;stroke-opacity:1" d="M147.427-2.325v-.2h-2.5v.2-.2h-2.496v.2-.2h-1.2v6.4h1.2v-.2.2h2.496v-.2" transform="translate(-140.931 16.226)"/></g><g style="display:inline"><path d="m142.764-1.88-.025.35h.014q.038-.084.097-.128.058-.046.155-.046.092 0 .169.043.077.041.123.122.046.08.046.187 0 .113-.05.202-.051.089-.15.14-.096.049-.231.049-.272 0-.402-.213l.173-.136q.043.073.095.114.054.041.135.041.087 0 .133-.048.046-.047.046-.13v-.012q0-.078-.047-.123-.046-.044-.126-.044-.106 0-.176.078l-.195-.027.041-.627h.688v.208z" transform="translate(-140.931 22.927)" aria-label="5" style="font-weight:700;font-size:1.5875px;line-height:1.25;font-family:'iA Writer Duospace';-inkscape-font-specification:'iA Writer Duospace Bold';display:inline;fill:#ea6962;stroke-width:.264583"/><path style="display:inline;fill:#d3869b;stroke:#776b60;stroke-width:0" transform="matrix(-1 0 0 1 -140.931 22.927)" d="M-142.231-2.525h1v1h-1z"/><path style="fill:none;stroke:#ea6962;stroke-width:.1;stroke-linecap:butt;stroke-linejoin:miter;stroke-miterlimit:4;stroke-dasharray:none;stroke-opacity:1" d="M147.427-2.325v-.2h-2.5v.2-.2h-2.496v.2-.2h-1.2v6.4h1.2v-.2.2h2.496v-.2" transform="translate(-140.931 22.927)"/></g><g style="display:inline"><path d="m-143.09 1.17-.025.35h.014q.039-.084.097-.129.059-.046.156-.046.092 0 .168.043.078.042.124.122.046.08.046.188 0 .113-.05.201-.052.09-.15.14-.097.05-.232.05-.271 0-.401-.213l.173-.137q.042.073.095.114.054.042.135.042.087 0 .133-.048.046-.048.046-.13v-.013q0-.078-.048-.122-.046-.045-.125-.045-.106 0-.176.078l-.195-.027.04-.627h.688v.208Z" transform="translate(180.931 13.672)" aria-label="5" style="font-weight:700;font-size:1.5875px;line-height:1.25;font-family:'iA Writer Duospace';-inkscape-font-specification:'iA Writer Duospace Bold';display:inline;fill:#ea6962;stroke-width:.264583"/><path style="display:inline;fill:#d3869b;stroke:#776b60;stroke-width:0" transform="matrix(1 0 0 -1 180.931 13.672)" d="M-142.231-2.525h1v1h-1z"/><path style="fill:none;stroke:#ea6962;stroke-width:.1;stroke-linecap:butt;stroke-linejoin:miter;stroke-miterlimit:4;stroke-dasharray:none;stroke-opacity:1" d="M147.427-2.325v-.2h-2.5v.2-.2h-2.496v.2-.2h-1.2v6.4h1.2v-.2.2h2.496v-.2" transform="rotate(180 90.466 6.836)"/><g style="display:inline"><path d="m-143.09 1.17-.025.35h.014q.039-.084.097-.129.059-.046.156-.046.092 0 .168.043.078.042.124.122.046.08.046.188 0 .113-.05.201-.052.09-.15.14-.097.05-.232.05-.271 0-.401-.213l.173-.137q.042.073.095.114.054.042.135.042.087 0 .133-.048.046-.048.046-.13v-.013q0-.078-.048-.122-.046-.045-.125-.045-.106 0-.176.078l-.195-.027.04-.627h.688v.208Z" transform="translate(180.931 20.372)" aria-label="5" style="font-weight:700;font-size:1.5875px;line-height:1.25;font-family:'iA Writer Duospace';-inkscape-font-specification:'iA Writer Duospace Bold';display:inline;fill:#ea6962;stroke-width:.264583"/><path style="display:inline;fill:#d3869b;stroke:#776b60;stroke-width:0" transform="matrix(1 0 0 -1 180.931 20.372)" d="M-142.231-2.525h1v1h-1z"/><path style="fill:none;stroke:#ea6962;stroke-width:.1;stroke-linecap:butt;stroke-linejoin:miter;stroke-miterlimit:4;stroke-dasharray:none;stroke-opacity:1" d="M147.427-2.325v-.2h-2.5v.2-.2h-2.496v.2-.2h-1.2v6.4h1.2v-.2.2h2.496v-.2" transform="rotate(180 90.466 10.186)"/></g><g style="display:inline"><path d="m-143.09 1.17-.025.35h.014q.039-.084.097-.129.059-.046.156-.046.092 0 .168.043.078.042.124.122.046.08.046.188 0 .113-.05.201-.052.09-.15.14-.097.05-.232.05-.271 0-.401-.213l.173-.137q.042.073.095.114.054.042.135.042.087 0 .133-.048.046-.048.046-.13v-.013q0-.078-.048-.122-.046-.045-.125-.045-.106 0-.176.078l-.195-.027.04-.627h.688v.208Z" transform="translate(180.881 27.023)" aria-label="5" style="font-weight:700;font-size:1.5875px;line-height:1.25;font-family:'iA Writer Duospace';-inkscape-font-specification:'iA Writer Duospace Bold';display:inline;fill:#ea6962;stroke-width:.264583"/><path style="display:inline;fill:#d3869b;stroke:#776b60;stroke-width:0" transform="matrix(1 0 0 -1 180.881 27.023)" d="M-142.231-2.525h1v1h-1z"/><path style="fill:none;stroke:#ea6962;stroke-width:.1;stroke-linecap:butt;stroke-linejoin:miter;stroke-miterlimit:4;stroke-dasharray:none;stroke-opacity:1" d="M147.427-2.325v-.2h-2.5v.2-.2h-2.496v.2-.2h-1.2v6.4h1.2v-.2.2h2.496v-.2" transform="rotate(180 90.44 13.511)"/></g><g style="display:inline"><path d="m-143.09 1.17-.025.35h.014q.039-.084.097-.129.059-.046.156-.046.092 0 .168.043.078.042.124.122.046.08.046.188 0 .113-.05.201-.052.09-.15.14-.097.05-.232.05-.271 0-.401-.213l.173-.137q.042.073.095.114.054.042.135.042.087 0 .133-.048.046-.048.046-.13v-.013q0-.078-.048-.122-.046-.045-.125-.045-.106 0-.176.078l-.195-.027.04-.627h.688v.208Z" transform="translate(180.931 33.774)" aria-label="5" style="font-weight:700;font-size:1.5875px;line-height:1.25;font-family:'iA Writer Duospace';-inkscape-font-specification:'iA Writer Duospace Bold';display:inline;fill:#ea6962;stroke-width:.264583"/><path style="display:inline;fill:#d3869b;stroke:#776b60;stroke-width:0" transform="matrix(1 0 0 -1 180.931 33.774)" d="M-142.231-2.525h1v1h-1z"/><path style="fill:none;stroke:#ea6962;stroke-width:.1;stroke-linecap:butt;stroke-linejoin:miter;stroke-miterlimit:4;stroke-dasharray:none;stroke-opacity:1" d="M147.427-2.325v-.2h-2.5v.2-.2h-2.496v.2-.2h-1.2v6.4h1.2v-.2.2h2.496v-.2" transform="rotate(180 90.466 16.887)"/></g><g style="display:inline"><path d="m-143.09 1.17-.025.35h.014q.039-.084.097-.129.059-.046.156-.046.092 0 .168.043.078.042.124.122.046.08.046.188 0 .113-.05.201-.052.09-.15.14-.097.05-.232.05-.271 0-.401-.213l.173-.137q.042.073.095.114.054.042.135.042.087 0 .133-.048.046-.048.046-.13v-.013q0-.078-.048-.122-.046-.045-.125-.045-.106 0-.176.078l-.195-.027.04-.627h.688v.208Z" transform="translate(180.931 40.48)" aria-label="5" style="font-weight:700;font-size:1.5875px;line-height:1.25;font-family:'iA Writer Duospace';-inkscape-font-specification:'iA Writer Duospace Bold';display:inline;fill:#ea6962;stroke-width:.264583"/><path style="display:inline;fill:#d3869b;stroke:#776b60;stroke-width:0" transform="matrix(1 0 0 -1 180.931 40.48)" d="M-142.231-2.525h1v1h-1z"/><path style="fill:none;stroke:#ea6962;stroke-width:.1;stroke-linecap:butt;stroke-linejoin:miter;stroke-miterlimit:4;stroke-dasharray:none;stroke-opacity:1" d="M147.427-2.325v-.2h-2.5v.2-.2h-2.496v.2-.2h-1.2v6.4h1.2v-.2.2h2.496v-.2" transform="rotate(180 90.466 20.24)"/></g><g style="display:inline"><path d="m-143.09 1.17-.025.35h.014q.039-.084.097-.129.059-.046.156-.046.092 0 .168.043.078.042.124.122.046.08.046.188 0 .113-.05.201-.052.09-.15.14-.097.05-.232.05-.271 0-.401-.213l.173-.137q.042.073.095.114.054.042.135.042.087 0 .133-.048.046-.048.046-.13v-.013q0-.078-.048-.122-.046-.045-.125-.045-.106 0-.176.078l-.195-.027.04-.627h.688v.208Z" transform="translate(180.931 47.175)" aria-label="5" style="font-weight:700;font-size:1.5875px;line-height:1.25;font-family:'iA Writer Duospace';-inkscape-font-specification:'iA Writer Duospace Bold';display:inline;fill:#ea6962;stroke-width:.264583"/><path style="display:inline;fill:#d3869b;stroke:#776b60;stroke-width:0" transform="matrix(1 0 0 -1 180.931 47.175)" d="M-142.231-2.525h1v1h-1z"/><path style="fill:none;stroke:#ea6962;stroke-width:.1;stroke-linecap:butt;stroke-linejoin:miter;stroke-miterlimit:4;stroke-dasharray:none;stroke-opacity:1" d="M147.427-2.325v-.2h-2.5v.2-.2h-2.496v.2-.2h-1.2v6.4h1.2v-.2.2h2.496v-.2" transform="rotate(180 90.466 23.587)"/></g></g><g style="display:inline"><path d="m142.764-1.88-.025.35h.014q.038-.084.097-.128.058-.046.155-.046.092 0 .169.043.077.041.123.122.046.08.046.187 0 .113-.05.202-.051.089-.15.14-.096.049-.231.049-.272 0-.402-.213l.173-.136q.043.073.095.114.054.041.135.041.087 0 .133-.048.046-.047.046-.13v-.012q0-.078-.047-.123-.046-.044-.126-.044-.106 0-.176.078l-.195-.027.041-.627h.688v.208z" transform="translate(-140.931 2.825)" aria-label="5" style="font-weight:700;font-size:1.5875px;line-height:1.25;font-family:'iA Writer Duospace';-inkscape-font-specification:'iA Writer Duospace Bold';display:inline;fill:#ea6962;stroke-width:.264583"/><path style="display:inline;fill:#d3869b;stroke:#776b60;stroke-width:0" transform="matrix(-1 0 0 1 -140.931 2.825)" d="M-142.231-2.525h1v1h-1z"/><path style="fill:none;stroke:#ea6962;stroke-width:.1;stroke-linecap:butt;stroke-linejoin:miter;stroke-miterlimit:4;stroke-dasharray:none;stroke-opacity:1" d="M147.427-2.325v-.2h-2.5v.2-.2h-2.496v.2-.2h-1.2v6.4h1.2v-.2.2h2.496v-.2" transform="translate(-140.931 2.825)"/></g></svg>