<?xml version="1.0" encoding="UTF-8" standalone="no"?>
<!-- Created with Inkscape (http://www.inkscape.org/) -->

<svg
   width="40.026524mm"
   height="50.026459mm"
   viewBox="0 0 40.026524 50.026459"
   version="1.1"
   id="svg5"
   inkscape:version="1.1.1 (3bf5ae0d25, 2021-09-20, custom)"
   sodipodi:docname="1_1.svg"
   xmlns:inkscape="http://www.inkscape.org/namespaces/inkscape"
   xmlns:sodipodi="http://sodipodi.sourceforge.net/DTD/sodipodi-0.dtd"
   xmlns="http://www.w3.org/2000/svg"
   xmlns:svg="http://www.w3.org/2000/svg">
  <sodipodi:namedview
     id="namedview7"
     pagecolor="#ffffff"
     bordercolor="#666666"
     borderopacity="1.0"
     inkscape:pageshadow="2"
     inkscape:pageopacity="0.0"
     inkscape:pagecheckerboard="0"
     inkscape:document-units="mm"
     showgrid="false"
     inkscape:snap-bbox="true"
     inkscape:bbox-paths="true"
     inkscape:bbox-nodes="true"
     inkscape:snap-bbox-edge-midpoints="true"
     inkscape:snap-bbox-midpoints="true"
     inkscape:object-paths="true"
     inkscape:snap-intersection-paths="true"
     inkscape:snap-smooth-nodes="true"
     inkscape:snap-midpoints="true"
     inkscape:snap-object-midpoints="true"
     inkscape:snap-center="true"
     inkscape:zoom="2.56"
     inkscape:cx="54.6875"
     inkscape:cy="58.007813"
     inkscape:window-width="1364"
     inkscape:window-height="755"
     inkscape:window-x="1"
     inkscape:window-y="12"
     inkscape:window-maximized="1"
     inkscape:current-layer="layer1">
    <inkscape:grid
       type="xygrid"
       id="grid15251"
       originx="0.31774181"
       originy="6.3233001" />
  </sodipodi:namedview>
  <defs
     id="defs2" />
  <g
     inkscape:label="Layer 1"
     inkscape:groupmode="layer"
     id="layer1"
     transform="translate(0.31774189,6.3233001)">
    <rect
       style="fill:#000000;stroke:#000000;stroke-width:0;stroke-miterlimit:4;stroke-dasharray:none"
       id="rect846"
       width="39.952091"
       height="50.006248"
       x="390.26041"
       y="10.583333" />
    <rect
       style="fill:#999999;stroke:#000000;stroke-width:0;stroke-miterlimit:4;stroke-dasharray:none"
       id="rect846-6"
       width="39.422924"
       height="49.477081"
       x="390.52499"
       y="10.847918" />
    <rect
       style="fill:none;stroke:#000000;stroke-width:0.1"
       id="rect846-3"
       width="40"
       height="50"
       x="437.98853"
       y="8.3606148" />
    <rect
       style="fill:#282828;fill-opacity:1;stroke:#000000;stroke-width:0;stroke-miterlimit:4;stroke-dasharray:none"
       id="rect1407"
       width="2.9619699"
       height="2.9619699"
       x="-29.399937"
       y="9.1931906" />
    <text
       xml:space="preserve"
       style="font-weight:bold;font-size:2.11667px;line-height:1.25;font-family:'iA Writer Duospace';-inkscape-font-specification:'iA Writer Duospace Bold';stroke-width:0.264583"
       x="-24.649723"
       y="11.444644"
       id="text10283"><tspan
         sodipodi:role="line"
         id="tspan10281"
         style="stroke-width:0.264583"
         x="-24.649723"
         y="11.444644">floor</tspan></text>
    <rect
       style="fill:#d3bd97;fill-opacity:1;stroke:#000000;stroke-width:0;stroke-miterlimit:4;stroke-dasharray:none"
       id="rect1407-7"
       width="2.9619699"
       height="2.9619699"
       x="-29.399937"
       y="14.28988" />
    <text
       xml:space="preserve"
       style="font-weight:bold;font-size:2.11667px;line-height:1.25;font-family:'iA Writer Duospace';-inkscape-font-specification:'iA Writer Duospace Bold';stroke-width:0.264583"
       x="-24.649723"
       y="16.541332"
       id="text10283-5"><tspan
         sodipodi:role="line"
         id="tspan10281-3"
         style="stroke-width:0.264583"
         x="-24.649723"
         y="16.541332">wall</tspan></text>
    <rect
       style="fill:#cccccc;stroke:#000000;stroke-width:0;stroke-miterlimit:4;stroke-dasharray:none"
       id="rect1407-5"
       width="2.9619699"
       height="2.9619699"
       x="-29.399937"
       y="19.244465" />
    <text
       xml:space="preserve"
       style="font-weight:bold;font-size:2.11667px;line-height:1.25;font-family:'iA Writer Duospace';-inkscape-font-specification:'iA Writer Duospace Bold';stroke-width:0.264583"
       x="-24.649723"
       y="21.495918"
       id="text10283-6"><tspan
         sodipodi:role="line"
         id="tspan10281-2"
         style="stroke-width:0.264583"
         x="-24.649723"
         y="21.495918">desk</tspan></text>
    <rect
       style="fill:#4d4d4d;stroke:#000000;stroke-width:0;stroke-miterlimit:4;stroke-dasharray:none"
       id="rect1407-7-9"
       width="2.9619699"
       height="2.9619699"
       x="-29.399937"
       y="24.341154" />
    <text
       xml:space="preserve"
       style="font-weight:bold;font-size:2.11667px;line-height:1.25;font-family:'iA Writer Duospace';-inkscape-font-specification:'iA Writer Duospace Bold';stroke-width:0.264583"
       x="-24.649723"
       y="26.592607"
       id="text10283-5-1"><tspan
         sodipodi:role="line"
         id="tspan10281-3-2"
         style="stroke-width:0.264583"
         x="-24.649723"
         y="26.592607">window</tspan></text>
    <rect
       style="fill:#b3b3b3;stroke:#4d4d4d;stroke-width:0;stroke-miterlimit:4;stroke-dasharray:none"
       id="rect16033"
       width="0.99999976"
       height="0.9999994"
       x="50.588573"
       y="-37.036491"
       transform="rotate(90)" />
    <rect
       style="fill:#282828;fill-opacity:1;stroke:#4d4d4d;stroke-width:0;stroke-miterlimit:4;stroke-dasharray:none"
       id="rect17355"
       width="50"
       height="40"
       x="-6.2968421"
       y="-39.682323"
       transform="rotate(90)" />
    <path
       d="M 39.682324,-6.2968418 H -0.317677 m 40.000001,1.000125 H -0.317677 m 40.000001,1.000125 H -0.317677 m 40.000001,1.000125 H -0.317677 m 40.000001,1.0001249 H -0.317677 m 40.000001,1.000125 H -0.317677 m 40.000001,1.000125 H -0.317677 m 40.000001,1.000125 H -0.317677 m 40.000001,1.000125 H -0.317677 M 39.682324,2.7042832 H -0.317677 M 39.682324,3.7044083 H -0.317677 M 39.682324,4.7045332 H -0.317677 m 40.000001,1.000125 H -0.317677 m 40.000001,1.000125 H -0.317677 m 40.000001,1.000125 H -0.317677 m 40.000001,1.000125 H -0.317677 m 40.000001,1.000125 H -0.317677 M 39.682324,10.705283 H -0.317677 m 40.000001,1.000125 H -0.317677 m 40.000001,1.000125 H -0.317677 m 40.000001,1.000125 H -0.317677 m 40.000001,1.000125 H -0.317677 m 40.000001,1.000125 H -0.317677 m 40.000001,1.000125 H -0.317677 m 40.000001,1.000125 H -0.317677 m 40.000001,1.000125 H -0.317677 m 40.000001,1.000125 H -0.317677 m 40.000001,1.000125 H -0.317677 m 40.000001,1.000125 H -0.317677 m 40.000001,1.000125 H -0.317677 m 40.000001,1.000125 H -0.317677 m 40.000001,1.000125 H -0.317677 m 40.000001,1.000125 H -0.317677 m 40.000001,1.000124 H -0.317677 m 40.000001,1.000125 H -0.317677 m 40.000001,1.000125 H -0.317677 m 40.000001,1.000125 H -0.317677 m 40.000001,1.000125 H -0.317677 m 40.000001,1.000125 H -0.317677 m 40.000001,1.000125 H -0.317677 m 40.000001,1.000125 H -0.317677 m 40.000001,1.000125 H -0.317677 m 40.000001,1.000125 H -0.317677 m 40.000001,1.000125 H -0.317677 m 40.000001,1.000125 H -0.317677 m 40.000001,1.000125 H -0.317677 m 40.000001,1.000125 H -0.317677 m 40.000001,1.000125 H -0.317677 m 40.000001,1.000125 H -0.317677 m 40.000001,1.000125 H -0.317677 M 39.682324,-6.2968418 V 43.703158 M 38.682199,-6.2968418 V 43.703158 M 37.682074,-6.2968418 V 43.703158 M 36.681949,-6.2968418 V 43.703158 M 35.681824,-6.2968418 V 43.703158 M 34.681699,-6.2968418 V 43.703158 M 33.681574,-6.2968418 V 43.703158 M 32.681448,-6.2968418 V 43.703158 M 31.681323,-6.2968418 V 43.703158 M 30.681198,-6.2968418 V 43.703158 M 29.681073,-6.2968418 V 43.703158 M 28.680948,-6.2968418 V 43.703158 M 27.680823,-6.2968418 V 43.703158 M 26.680698,-6.2968418 V 43.703158 M 25.680573,-6.2968418 V 43.703158 M 24.680448,-6.2968418 V 43.703158 M 23.680323,-6.2968418 V 43.703158 M 22.680198,-6.2968418 V 43.703158 M 21.680073,-6.2968418 V 43.703158 M 20.679948,-6.2968418 V 43.703158 M 19.679823,-6.2968418 V 43.703158 M 18.679698,-6.2968418 V 43.703158 M 17.679573,-6.2968418 V 43.703158 M 16.679448,-6.2968418 V 43.703158 M 15.679323,-6.2968418 V 43.703158 M 14.679198,-6.2968418 V 43.703158 M 13.679073,-6.2968418 V 43.703158 M 12.678948,-6.2968418 V 43.703158 M 11.678823,-6.2968418 V 43.703158 M 10.678698,-6.2968418 V 43.703158 M 9.678573,-6.2968418 V 43.703158 M 8.678448,-6.2968418 V 43.703158 M 7.678323,-6.2968418 V 43.703158 M 6.678199,-6.2968418 V 43.703158 M 5.678074,-6.2968418 V 43.703158 M 4.677949,-6.2968418 V 43.703158 M 3.677824,-6.2968418 V 43.703158 M 2.677699,-6.2968418 V 43.703158 M 1.677574,-6.2968418 V 43.703158 M 0.677449,-6.2968418 V 43.703158"
       style="fill:none;stroke:#d3bd97;stroke-width:0.0529167px;stroke-opacity:1"
       id="path16795" />
    <rect
       style="fill:#d3bd97;fill-opacity:1;stroke:#4d4d4d;stroke-width:0;stroke-miterlimit:4;stroke-dasharray:none"
       id="rect16917"
       width="0.49999395"
       height="39.999996"
       x="43.203159"
       y="-39.68232"
       transform="rotate(90)" />
    <rect
       style="fill:#d3bd97;fill-opacity:1;stroke:#4d4d4d;stroke-width:0;stroke-miterlimit:4;stroke-dasharray:none"
       id="rect16917-7"
       width="0.49999395"
       height="39.999996"
       x="-6.2967744"
       y="-39.682255"
       transform="rotate(90)" />
    <rect
       style="fill:#d3bd97;fill-opacity:1;stroke:#4d4d4d;stroke-width:0;stroke-miterlimit:4;stroke-dasharray:none"
       id="rect16917-7-0"
       width="0.49999383"
       height="49.499935"
       x="-39.682255"
       y="-43.203159"
       transform="scale(-1)" />
    <rect
       style="fill:#d3bd97;fill-opacity:1;stroke:#4d4d4d;stroke-width:0;stroke-miterlimit:4;stroke-dasharray:none"
       id="rect16917-7-0-9"
       width="0.49999383"
       height="49.499935"
       x="-0.1823145"
       y="-43.203091"
       transform="scale(-1)" />
    <text
       xml:space="preserve"
       style="font-style:normal;font-variant:normal;font-weight:normal;font-stretch:normal;font-size:2.11667px;line-height:1.25;font-family:'iA Writer Duospace';-inkscape-font-specification:'iA Writer Duospace';stroke-width:0.264583"
       x="-22.108816"
       y="-13.2167"
       id="text28367"><tspan
         sodipodi:role="line"
         id="tspan28365"
         style="font-style:normal;font-variant:normal;font-weight:normal;font-stretch:normal;font-family:'iA Writer Duospace';-inkscape-font-specification:'iA Writer Duospace';stroke-width:0.264583"
         x="-22.108816"
         y="-13.2167">Толщина стены - 0,5 м</tspan><tspan
         sodipodi:role="line"
         style="font-style:normal;font-variant:normal;font-weight:normal;font-stretch:normal;font-family:'iA Writer Duospace';-inkscape-font-specification:'iA Writer Duospace';stroke-width:0.264583"
         x="-22.108816"
         y="-10.570862"
         id="tspan29249">Размер здания - 40х50 м</tspan><tspan
         sodipodi:role="line"
         style="font-style:normal;font-variant:normal;font-weight:normal;font-stretch:normal;font-family:'iA Writer Duospace';-inkscape-font-specification:'iA Writer Duospace';stroke-width:0.264583"
         x="-22.108816"
         y="-7.925025"
         id="tspan29251" /></text>
  </g>
  <g
     inkscape:groupmode="layer"
     id="layer2"
     inkscape:label="Layer 2"
     sodipodi:insensitive="true"
     transform="translate(0.31774189,6.3233001)" />
</svg>
