<?xml version="1.0" encoding="UTF-8" standalone="no"?>
<!-- Created with Inkscape (http://www.inkscape.org/) -->

<svg
   width="30.028252mm"
   height="20.150005mm"
   viewBox="0 0 30.028251 20.150005"
   version="1.1"
   id="svg95174"
   xmlns="http://www.w3.org/2000/svg"
   xmlns:svg="http://www.w3.org/2000/svg">
  <defs
     id="defs95171" />
  <g
     id="layer1"
     transform="translate(-99.614174,-190.99366)">
    <rect
       style="display:inline;fill:#282828;fill-opacity:1;stroke:#4d4d4d;stroke-width:0;stroke-miterlimit:4;stroke-dasharray:none"
       id="rect17355-2-1"
       width="19.999998"
       height="29.999998"
       x="191.14366"
       y="-129.63356"
       transform="rotate(90)" />
    <rect
       style="display:inline;fill:#776b60;fill-opacity:1;stroke:none;stroke-width:0;stroke-opacity:1;paint-order:stroke fill markers"
       id="rect16151-7-4-63-93-7-6-1-5"
       width="13.325138"
       height="12.486614"
       x="100.12266"
       y="191.47617" />
    <path
       d="M 129.63355,192.14378 H 99.63356 m 29.99999,1.00013 H 99.63356 m 29.99999,1.00012 H 99.63356 m 29.99999,1.00013 H 99.63356 m 29.99999,1.00012 H 99.63356 m 29.99999,1.00013 H 99.63356 m 29.99999,1.00012 H 99.63356 m 29.99999,1.00013 H 99.63356 m 29.99999,1.00012 H 99.63356 m 29.99999,1.00013 H 99.63356 m 29.99999,1.00012 H 99.63356 m 29.99999,1.00013 H 99.63356 m 29.99999,1.00012 H 99.63356 m 29.99999,1.00013 H 99.63356 m 29.99999,1.00012 H 99.63356 m 29.99999,1.00013 H 99.63356 m 29.99999,1.00012 H 99.63356 m 29.99999,1.00013 H 99.63356 m 29.99999,1.00012 H 99.63356 m 28.99862,-19.00237 v 20 m -1.00013,-20 v 20 m -1.00012,-20 v 20 m -1.00013,-20 v 20 m -1.00012,-20 v 20 m -1.00013,-20 v 20 m -1.00012,-20 v 20 m -1.00013,-20 v 20 m -1.00012,-20 v 20 m -1.00013,-20 v 20 m -1.00012,-20 v 20 m -1.00013,-20 v 20 m -1.00012,-20 v 20 m -1.00013,-20 v 20 m -1.00012,-20 v 20 m -1.00013,-20 v 20 m -1.00012,-20 v 20 m -1.00013,-20 v 20 m -1.00012,-20 v 20 m -1.00013,-20 v 20 m -1.00012,-20 v 20 m -1.00013,-20 v 20 m -1.00012,-20 v 20 m -1.00013,-20 v 20 m -1.00012,-20 v 20 m -1.00013,-20 v 20 m -1.00012,-20 v 20 m -1.00013,-20 v 20 m -1.00012,-20 v 20"
       style="display:inline;fill:none;stroke:#776b60;stroke-width:0.0529167px;stroke-opacity:1"
       id="path16795-0-5" />
    <rect
       style="display:inline;fill:#776b60;fill-opacity:1;stroke:none;stroke-width:0.399999;stroke-miterlimit:4;stroke-dasharray:none;stroke-opacity:1"
       id="rect42262"
       width="6.0007501"
       height="3.00037"
       x="100.62868"
       y="207.14566" />
    <g
       aria-label="󰾐"
       id="text48613-38-6-2"
       style="font-size:2.11667px;line-height:1.25;font-family:'Material Design Icons';-inkscape-font-specification:'Material Design Icons';display:inline;fill:#282828;fill-opacity:1;stroke-width:0.264583"
       transform="translate(57.442933,191.90977)">
      <path
         d="m 45.479196,16.029139 v 1.322919 q 0,0.07441 0.04961,0.128158 0.05374,0.04961 0.128158,0.04961 v 0.08682 h 0.177767 v -0.08682 h 0.305925 v -1.674319 h -0.483692 q -0.07442,0 -0.128158,0.05374 -0.04961,0.04961 -0.04961,0.119889 z m 0.355535,0.529168 h 0.173633 v 0.264584 h -0.173633 z m 0.880568,-0.702801 h -0.483693 v 1.674319 h 0.305925 v 0.08682 h 0.177768 v -0.08682 q 0.07441,0 0.124023,-0.04961 0.05374,-0.05374 0.05374,-0.128158 v -1.322919 q 0,-0.07028 -0.05374,-0.119889 -0.04961,-0.05374 -0.124023,-0.05374 z m -0.177768,0.967385 h -0.173633 v -0.264584 h 0.173633 z"
         id="path53143-6-2-1"
         style="fill:#282828;fill-opacity:1" />
    </g>
    <rect
       style="display:inline;fill:#776b60;fill-opacity:1;stroke:none;stroke-width:0;stroke-opacity:1;paint-order:stroke fill markers"
       id="rect16151-7-4-63-93-7-6"
       width="3.5810325"
       height="4.3069344"
       x="121.26403"
       y="191.49051" />
    <rect
       style="display:inline;fill:#a9b665;fill-opacity:1;stroke:#000000;stroke-width:0;paint-order:stroke fill markers"
       id="rect54699-4"
       width="1.9998796"
       height="2.5001059"
       x="110.62992"
       y="200.64505"
       ry="8.6846832e-08" />
    <rect
       style="display:inline;fill:#d3bd97;fill-opacity:1;stroke:none;stroke-width:0;stroke-opacity:1;paint-order:stroke fill markers"
       id="rect7514-9"
       width="29.999994"
       height="0.30000001"
       x="-129.63356"
       y="-191.29366"
       transform="scale(-1)" />
    <rect
       style="display:inline;fill:#d3bd97;fill-opacity:1;stroke:none;stroke-width:0;stroke-opacity:1;paint-order:stroke fill markers"
       id="rect7514-9-8"
       width="29.999994"
       height="0.30000001"
       x="-129.63356"
       y="-211.14366"
       transform="scale(-1)" />
    <rect
       style="display:inline;fill:#d3bd97;fill-opacity:1;stroke:none;stroke-width:0;stroke-opacity:1;paint-order:stroke fill markers"
       id="rect7514-9-4"
       width="19.549997"
       height="0.28891635"
       x="-210.84366"
       y="129.34242"
       transform="rotate(-90)" />
    <rect
       style="display:inline;fill:#d3bd97;fill-opacity:1;stroke:none;stroke-width:0;stroke-opacity:1;paint-order:stroke fill markers"
       id="rect7514-9-4-8"
       width="14.001747"
       height="0.31318894"
       x="-205.1454"
       y="99.626961"
       transform="rotate(-90)" />
    <rect
       style="display:inline;fill:#d3bd97;fill-opacity:1;stroke:none;stroke-width:0;stroke-opacity:1;paint-order:stroke fill markers"
       id="rect7514-9-4-8-0"
       width="4.8506241"
       height="0.30000001"
       x="-196.14429"
       y="125.04191"
       transform="rotate(-90)" />
    <rect
       style="display:inline;fill:#776b60;fill-opacity:1;fill-rule:nonzero;stroke:none;stroke-width:0;stroke-opacity:1;paint-order:stroke fill markers"
       id="rect2564-5"
       width="3.4715285"
       height="3.0211525"
       x="112.81268"
       y="207.62816" />
    <rect
       style="display:inline;fill:#7daea3;fill-opacity:1;fill-rule:nonzero;stroke:none;stroke-width:0;stroke-opacity:1;paint-order:stroke fill markers"
       id="rect3865-0-0"
       width="0.29999843"
       height="2.0002499"
       x="190.99367"
       y="-129.34242"
       transform="rotate(90)" />
    <rect
       style="display:inline;fill:#7daea3;fill-opacity:1;fill-rule:nonzero;stroke:none;stroke-width:0;stroke-opacity:1;paint-order:stroke fill markers"
       id="rect3867-9-5"
       width="0.29999843"
       height="1.290022"
       x="190.99367"
       y="-126.63194"
       transform="rotate(90)" />
    <rect
       style="display:inline;fill:#7daea3;fill-opacity:1;fill-rule:nonzero;stroke:none;stroke-width:0;stroke-opacity:1;paint-order:stroke fill markers"
       id="rect3865-0-0-6"
       width="0.29999843"
       height="2.0002499"
       x="190.99367"
       y="-125.04191"
       transform="rotate(90)" />
    <rect
       style="display:inline;fill:#7daea3;fill-opacity:1;fill-rule:nonzero;stroke:none;stroke-width:0;stroke-opacity:1;paint-order:stroke fill markers"
       id="rect3867-9-5-4"
       width="0.29999843"
       height="1.290022"
       x="190.99367"
       y="-122.33143"
       transform="rotate(90)" />
    <rect
       style="display:inline;fill:#7daea3;fill-opacity:1;fill-rule:nonzero;stroke:none;stroke-width:0;stroke-opacity:1;paint-order:stroke fill markers"
       id="rect3865-0-0-7"
       width="0.29999843"
       height="2.0002499"
       x="210.84366"
       y="-129.34242"
       transform="rotate(90)" />
    <rect
       style="display:inline;fill:#7daea3;fill-opacity:1;fill-rule:nonzero;stroke:none;stroke-width:0;stroke-opacity:1;paint-order:stroke fill markers"
       id="rect3867-9-5-2"
       width="0.29999843"
       height="1.290022"
       x="210.84366"
       y="-126.63194"
       transform="rotate(90)" />
    <rect
       style="display:inline;fill:#7daea3;fill-opacity:1;fill-rule:nonzero;stroke:none;stroke-width:0;stroke-opacity:1;paint-order:stroke fill markers"
       id="rect3865-0-0-6-4"
       width="0.29999843"
       height="2.0002499"
       x="210.84366"
       y="-125.04191"
       transform="rotate(90)" />
    <rect
       style="display:inline;fill:#7daea3;fill-opacity:1;fill-rule:nonzero;stroke:none;stroke-width:0;stroke-opacity:1;paint-order:stroke fill markers"
       id="rect3867-9-5-4-0"
       width="0.29999843"
       height="1.290022"
       x="210.84366"
       y="-122.33143"
       transform="rotate(90)" />
    <rect
       style="display:inline;fill:#7daea3;fill-opacity:1;fill-rule:nonzero;stroke:none;stroke-width:0;stroke-opacity:1;paint-order:stroke fill markers"
       id="rect3865-0-0-62"
       width="0.29999843"
       height="2.0002499"
       x="190.99367"
       y="-120.76719"
       transform="rotate(90)" />
    <rect
       style="display:inline;fill:#7daea3;fill-opacity:1;fill-rule:nonzero;stroke:none;stroke-width:0;stroke-opacity:1;paint-order:stroke fill markers"
       id="rect3867-9-5-5"
       width="0.29999843"
       height="1.421385"
       x="190.99367"
       y="-115.34425"
       transform="rotate(90)" />
    <rect
       style="display:inline;fill:#7daea3;fill-opacity:1;fill-rule:nonzero;stroke:none;stroke-width:0;stroke-opacity:1;paint-order:stroke fill markers"
       id="rect3873-71-0"
       width="0.29999843"
       height="2.0002499"
       x="190.99367"
       y="-110.62992"
       transform="rotate(90)" />
    <rect
       style="display:inline;fill:#7daea3;fill-opacity:1;fill-rule:nonzero;stroke:none;stroke-width:0;stroke-opacity:1;paint-order:stroke fill markers"
       id="rect3875-1-8"
       width="0.29999843"
       height="2.0002499"
       x="190.99367"
       y="-107.62954"
       transform="rotate(90)" />
    <rect
       style="display:inline;fill:#7daea3;fill-opacity:1;fill-rule:nonzero;stroke:none;stroke-width:0;stroke-opacity:1;paint-order:stroke fill markers"
       id="rect3877-5-5"
       width="0.29999843"
       height="2.0002499"
       x="190.99367"
       y="-104.62917"
       transform="rotate(90)" />
    <rect
       style="display:inline;fill:#7daea3;fill-opacity:1;fill-rule:nonzero;stroke:none;stroke-width:0;stroke-opacity:1;paint-order:stroke fill markers"
       id="rect3879-9-0"
       width="0.29999843"
       height="2.0002499"
       x="190.99367"
       y="-101.94039"
       transform="rotate(90)" />
    <text
       xml:space="preserve"
       style="font-weight:bold;font-size:1.5875px;line-height:1.25;font-family:'iA Writer Duospace';-inkscape-font-specification:'iA Writer Duospace Bold';display:inline;fill:#ea6962;fill-opacity:1;stroke-width:0.264583"
       x="110.43543"
       y="203.94373"
       id="text73243-36-1-3-2"><tspan
         id="tspan73241-1-9-2-9"
         style="fill:#ea6962;fill-opacity:1;stroke-width:0.264583"
         x="110.43543"
         y="203.94373">1</tspan></text>
    <rect
       style="display:inline;fill:#d3869b;fill-opacity:1;stroke:#776b60;stroke-width:0;stroke-linecap:butt;stroke-linejoin:miter;stroke-miterlimit:4;stroke-dasharray:none;stroke-dashoffset:0;stroke-opacity:1;paint-order:normal"
       id="rect13126-28-2-8-0"
       width="0.99999899"
       height="0.99999899"
       x="-113.6303"
       y="203.14528"
       transform="scale(-1,1)" />
    <rect
       style="display:inline;fill:#d3bd97;fill-opacity:1;stroke:none;stroke-width:0;stroke-opacity:1;paint-order:stroke fill markers"
       id="rect41372"
       width="3.6979966"
       height="0.33876953"
       x="-210.84366"
       y="99.614174"
       transform="rotate(-90)" />
    <rect
       style="display:inline;fill:#d3bd97;fill-opacity:1;stroke:none;stroke-width:0.4;stroke-miterlimit:4;stroke-dasharray:none;stroke-opacity:1"
       id="rect41568"
       width="1.00012"
       height="2.0002499"
       x="202.14503"
       y="-109.6298"
       transform="rotate(90)" />
    <rect
       style="display:inline;fill:#d3bd97;fill-opacity:1;stroke:none;stroke-width:0.4;stroke-miterlimit:4;stroke-dasharray:none;stroke-opacity:1"
       id="rect41570"
       width="12.001487"
       height="1.0001249"
       x="100.62868"
       y="192.14378" />
    <rect
       style="display:inline;fill:#d3bd97;fill-opacity:1;stroke:none;stroke-width:0.4;stroke-miterlimit:4;stroke-dasharray:none;stroke-opacity:1"
       id="rect41572"
       width="5.0006299"
       height="1.0001249"
       x="101.62879"
       y="194.14403" />
    <rect
       style="display:inline;fill:#d3bd97;fill-opacity:1;stroke:none;stroke-width:0.4;stroke-miterlimit:4;stroke-dasharray:none;stroke-opacity:1"
       id="rect41574"
       width="5.0006299"
       height="1.0001249"
       x="101.62879"
       y="196.14429" />
    <rect
       style="display:inline;fill:#d3bd97;fill-opacity:1;stroke:none;stroke-width:0.4;stroke-miterlimit:4;stroke-dasharray:none;stroke-opacity:1"
       id="rect41576"
       width="5.0006299"
       height="1.0001249"
       x="101.62879"
       y="198.14453" />
    <text
       xml:space="preserve"
       style="font-weight:bold;font-size:1.5875px;line-height:1.25;font-family:'Material Design Icons Desktop';-inkscape-font-specification:'Material Design Icons Desktop Bold';display:inline;fill:#282828;fill-opacity:1;stroke-width:0.264583"
       x="106.05814"
       y="198.31477"
       id="text84859"><tspan
         id="tspan84857"
         style="fill:#282828;fill-opacity:1;stroke-width:0.264583"
         x="106.05814"
         y="198.31477">󰄐</tspan></text>
    <rect
       style="display:inline;fill:#d3bd97;fill-opacity:1;stroke:none;stroke-width:0.4;stroke-miterlimit:4;stroke-dasharray:none;stroke-opacity:1"
       id="rect41572-1"
       width="4.0004964"
       height="1.0001249"
       x="107.62955"
       y="194.14403" />
    <rect
       style="display:inline;fill:#d3bd97;fill-opacity:1;stroke:none;stroke-width:0.4;stroke-miterlimit:4;stroke-dasharray:none;stroke-opacity:1"
       id="rect41574-0"
       width="4.0004964"
       height="1.0001249"
       x="107.62955"
       y="196.14429" />
    <rect
       style="display:inline;fill:#d3bd97;fill-opacity:1;stroke:none;stroke-width:0.4;stroke-miterlimit:4;stroke-dasharray:none;stroke-opacity:1"
       id="rect41576-3"
       width="4.0004964"
       height="1.0001249"
       x="107.62955"
       y="198.14453" />
    <rect
       style="display:inline;fill:#d3bd97;fill-opacity:1;stroke:none;stroke-width:0.4;stroke-miterlimit:4;stroke-dasharray:none;stroke-opacity:1"
       id="rect42054"
       width="1.00012"
       height="2.0002499"
       x="202.14503"
       y="-106.62942"
       transform="rotate(90)" />
    <rect
       style="display:inline;fill:#d3bd97;fill-opacity:1;stroke:none;stroke-width:0.4;stroke-miterlimit:4;stroke-dasharray:none;stroke-opacity:1"
       id="rect42056"
       width="1.00012"
       height="2.0002499"
       x="202.14503"
       y="-103.62904"
       transform="rotate(90)" />
    <rect
       style="display:inline;fill:#d3bd97;fill-opacity:1;stroke:none;stroke-width:0;stroke-opacity:1;paint-order:stroke fill markers"
       id="rect42184"
       width="2.7104795"
       height="0.30000001"
       x="126.63192"
       y="195.99429" />
    <rect
       style="display:inline;fill:#d3bd97;fill-opacity:1;stroke:none;stroke-width:0;stroke-opacity:1;paint-order:stroke fill markers"
       id="rect42186"
       width="5.0006261"
       height="0.30000001"
       x="-196.29428"
       y="120.76719"
       transform="rotate(-90)" />
    <rect
       style="display:inline;fill:#d3bd97;fill-opacity:1;stroke:none;stroke-width:0;stroke-opacity:1;paint-order:stroke fill markers"
       id="rect42190"
       width="2.7104766"
       height="0.30000001"
       x="122.63143"
       y="195.99429" />
    <rect
       style="display:inline;fill:#d3bd97;fill-opacity:1;stroke:none;stroke-width:0;stroke-opacity:1;paint-order:stroke fill markers"
       id="rect42196"
       width="5.1366496"
       height="0.30000001"
       x="115.63055"
       y="195.99429" />
    <rect
       style="display:inline;fill:#d3bd97;fill-opacity:1;stroke:none;stroke-width:0;stroke-opacity:1;paint-order:stroke fill markers"
       id="rect42198"
       width="4.8506241"
       height="0.30000001"
       x="-203.29517"
       y="125.04194"
       transform="rotate(-90)" />
    <rect
       style="display:inline;fill:#d3bd97;fill-opacity:1;stroke:none;stroke-width:0;stroke-opacity:1;paint-order:stroke fill markers"
       id="rect42202"
       width="2.7104797"
       height="0.30000001"
       x="126.63194"
       y="203.14516" />
    <rect
       style="display:inline;fill:#d3bd97;fill-opacity:1;stroke:none;stroke-width:0;stroke-opacity:1;paint-order:stroke fill markers"
       id="rect42204"
       width="4.8506241"
       height="0.30000001"
       x="-203.29517"
       y="120.76722"
       transform="rotate(-90)" />
    <rect
       style="display:inline;fill:#d3bd97;fill-opacity:1;stroke:none;stroke-width:0;stroke-opacity:1;paint-order:stroke fill markers"
       id="rect42208"
       width="2.7105072"
       height="0.31998825"
       x="122.63143"
       y="203.13516" />
    <rect
       style="display:inline;fill:#d3bd97;fill-opacity:1;stroke:none;stroke-width:0;stroke-opacity:1;paint-order:stroke fill markers"
       id="rect42210"
       width="5.0031695"
       height="0.30000001"
       x="-203.44771"
       y="116.46671"
       transform="rotate(-90)" />
    <rect
       style="display:inline;fill:#d3bd97;fill-opacity:1;stroke:none;stroke-width:0;stroke-opacity:1;paint-order:stroke fill markers"
       id="rect42210-4"
       width="3.6980011"
       height="0.30000001"
       x="-210.84366"
       y="107.62955"
       transform="rotate(-90)" />
    <rect
       style="display:inline;fill:#d3bd97;fill-opacity:1;stroke:none;stroke-width:0;stroke-opacity:1;paint-order:stroke fill markers"
       id="rect42210-4-47"
       width="3.6980011"
       height="0.30000001"
       x="-210.84366"
       y="112.33018"
       transform="rotate(-90)" />
    <rect
       style="display:inline;fill:#d3bd97;fill-opacity:1;stroke:none;stroke-width:0;stroke-opacity:1;paint-order:stroke fill markers"
       id="rect42210-4-4"
       width="1.8362732"
       height="0.30000001"
       x="114.63042"
       y="207.14566" />
    <rect
       style="display:inline;fill:#d3bd97;fill-opacity:1;stroke:none;stroke-width:0;stroke-opacity:1;paint-order:stroke fill markers"
       id="rect42214"
       width="3.1543853"
       height="0.32869506"
       x="117.91283"
       y="203.13081" />
    <rect
       style="display:inline;fill:#d3bd97;fill-opacity:1;stroke:none;stroke-width:0;stroke-opacity:1;paint-order:stroke fill markers"
       id="rect42216"
       width="5.0006223"
       height="0.30000001"
       x="205.84554"
       y="125.04191"
       transform="matrix(0,1,1,0,0,0)" />
    <rect
       style="display:inline;fill:#d3bd97;fill-opacity:1;stroke:none;stroke-width:0;stroke-opacity:1;paint-order:stroke fill markers"
       id="rect42220"
       width="2.7104795"
       height="0.30000001"
       x="126.63192"
       y="-206.14554"
       transform="scale(1,-1)" />
    <rect
       style="display:inline;fill:#d3bd97;fill-opacity:1;stroke:none;stroke-width:0;stroke-opacity:1;paint-order:stroke fill markers"
       id="rect42222"
       width="5.0006223"
       height="0.30000001"
       x="205.84554"
       y="120.76719"
       transform="matrix(0,1,1,0,0,0)" />
    <rect
       style="display:inline;fill:#d3bd97;fill-opacity:1;stroke:none;stroke-width:0;stroke-opacity:1;paint-order:stroke fill markers"
       id="rect42226"
       width="2.4266675"
       height="0.30000001"
       x="122.63143"
       y="-206.14554"
       transform="scale(1,-1)" />
    <rect
       style="display:inline;fill:#d3bd97;fill-opacity:1;stroke:none;stroke-width:0;stroke-opacity:1;paint-order:stroke fill markers"
       id="rect42228"
       width="5.0006223"
       height="0.30000001"
       x="205.84554"
       y="116.4667"
       transform="matrix(0,1,1,0,0,0)" />
    <rect
       style="display:inline;fill:#d3bd97;fill-opacity:1;stroke:none;stroke-width:0;stroke-opacity:1;paint-order:stroke fill markers"
       id="rect42232"
       width="2.1362691"
       height="0.30000001"
       x="118.63093"
       y="-206.14554"
       transform="scale(1,-1)" />
    <rect
       style="display:inline;fill:#d3bd97;fill-opacity:1;stroke:none;stroke-width:0;stroke-opacity:1;paint-order:stroke fill markers"
       id="rect42234"
       width="4.300499"
       height="0.30000001"
       x="125.04191"
       y="198.14453" />
    <rect
       style="display:inline;fill:#d3bd97;fill-opacity:1;stroke:none;stroke-width:0;stroke-opacity:1;paint-order:stroke fill markers"
       id="rect42236"
       width="4.300499"
       height="0.30000001"
       x="120.76719"
       y="198.14453" />
    <rect
       style="display:inline;fill:#d3bd97;fill-opacity:1;stroke:none;stroke-width:0;stroke-opacity:1;paint-order:stroke fill markers"
       id="rect42238"
       width="4.300499"
       height="0.30000001"
       x="116.46671"
       y="198.14453" />
    <rect
       style="display:inline;fill:#d3bd97;fill-opacity:1;stroke:none;stroke-width:0;stroke-opacity:1;paint-order:stroke fill markers"
       id="rect42468"
       width="13.163385"
       height="0.28509158"
       x="-204.45705"
       y="113.63776"
       transform="rotate(-90)" />
    <rect
       style="display:inline;fill:#d3bd97;fill-opacity:1;stroke:none;stroke-width:0;stroke-opacity:1;paint-order:stroke fill markers"
       id="rect42470"
       width="11.001366"
       height="0.31819388"
       x="102.62894"
       y="204.14528" />
    <rect
       style="display:inline;fill:#d3bd97;fill-opacity:1;stroke:none;stroke-width:0.4;stroke-miterlimit:4;stroke-dasharray:none;stroke-opacity:1"
       id="rect42472"
       width="5.0006299"
       height="1.0001249"
       x="101.62879"
       y="200.14479" />
    <rect
       style="display:inline;fill:#d3bd97;fill-opacity:1;stroke:none;stroke-width:0.4;stroke-miterlimit:4;stroke-dasharray:none;stroke-opacity:1"
       id="rect42474"
       width="2.0002394"
       height="1.0001249"
       x="107.62955"
       y="200.14479" />
    <rect
       style="display:inline;fill:#d3bd97;fill-opacity:1;stroke:none;stroke-width:0;stroke-opacity:1;paint-order:stroke fill markers"
       id="rect51144"
       width="2.3748441"
       height="0.30000001"
       x="109.95533"
       y="207.14566" />
    <rect
       style="display:inline;fill:#776b60;fill-opacity:1;stroke:none;stroke-width:0;stroke-opacity:1;paint-order:stroke fill markers"
       id="rect16151-7-4-63-93-7-6-2"
       width="3.6068199"
       height="4.3069344"
       x="125.53875"
       y="191.49051" />
    <rect
       style="display:inline;fill:#776b60;fill-opacity:1;stroke:none;stroke-width:0;stroke-opacity:1;paint-order:stroke fill markers"
       id="rect16151-7-4-63-93-7-6-1"
       width="6.4506388"
       height="4.3069344"
       x="114.1197"
       y="191.49051" />
    <g
       aria-label="󰑴"
       id="text57823"
       style="font-size:1.5875px;line-height:1.25;font-family:'Material Design Icons Desktop';-inkscape-font-specification:'Material Design Icons Desktop';display:inline;fill:#282828;fill-opacity:1;stroke-width:0.264583"
       transform="translate(-35.437503,126.68175)">
      <path
         d="m 162.77967,66.366916 -0.72864,0.396875 0.72864,0.396875 0.59531,-0.325562 v 0.458887 h 0.13332 v -0.5302 z m -0.46199,0.672827 v 0.26665 l 0.46199,0.251148 0.46198,-0.251148 v -0.26665 l -0.46198,0.254248 z"
         id="path60237"
         style="fill:#282828;fill-opacity:1" />
    </g>
    <rect
       style="display:inline;fill:#776b60;fill-opacity:1;stroke:none;stroke-width:0;stroke-opacity:1;paint-order:stroke fill markers"
       id="rect16151-7-4-63-93-7-6-2-7"
       width="3.6068199"
       height="4.3069344"
       x="125.53873"
       y="198.64139" />
    <g
       aria-label="󰑴"
       id="text57823-9"
       style="font-size:1.5875px;line-height:1.25;font-family:'Material Design Icons Desktop';-inkscape-font-specification:'Material Design Icons Desktop';display:inline;fill:#282828;fill-opacity:1;stroke-width:0.264583"
       transform="translate(-35.437522,133.83263)">
      <path
         d="m 162.77967,66.366916 -0.72864,0.396875 0.72864,0.396875 0.59531,-0.325562 v 0.458887 h 0.13332 v -0.5302 z m -0.46199,0.672827 v 0.26665 l 0.46199,0.251148 0.46198,-0.251148 v -0.26665 l -0.46198,0.254248 z"
         id="path60237-7"
         style="fill:#282828;fill-opacity:1" />
    </g>
    <rect
       style="display:inline;fill:#776b60;fill-opacity:1;stroke:none;stroke-width:0;stroke-opacity:1;paint-order:stroke fill markers"
       id="rect16151-7-4-63-93-7-6-2-5"
       width="3.6068199"
       height="4.3069344"
       x="121.23826"
       y="198.64139" />
    <g
       aria-label="󰑴"
       id="text57823-8"
       style="font-size:1.5875px;line-height:1.25;font-family:'Material Design Icons Desktop';-inkscape-font-specification:'Material Design Icons Desktop';display:inline;fill:#282828;fill-opacity:1;stroke-width:0.264583"
       transform="translate(-39.73799,133.83262)">
      <path
         d="m 162.77967,66.366916 -0.72864,0.396875 0.72864,0.396875 0.59531,-0.325562 v 0.458887 h 0.13332 v -0.5302 z m -0.46199,0.672827 v 0.26665 l 0.46199,0.251148 0.46198,-0.251148 v -0.26665 l -0.46198,0.254248 z"
         id="path60237-9"
         style="fill:#282828;fill-opacity:1" />
    </g>
    <rect
       style="display:inline;fill:#776b60;fill-opacity:1;stroke:none;stroke-width:0;stroke-opacity:1;paint-order:stroke fill markers"
       id="rect16151-7-4-63-93-7-6-2-6"
       width="3.6068199"
       height="4.3069344"
       x="116.96355"
       y="198.64139" />
    <g
       aria-label="󰑴"
       id="text57823-6"
       style="font-size:1.5875px;line-height:1.25;font-family:'Material Design Icons Desktop';-inkscape-font-specification:'Material Design Icons Desktop';display:inline;fill:#282828;fill-opacity:1;stroke-width:0.264583"
       transform="translate(-44.012686,133.83262)">
      <path
         d="m 162.77967,66.366916 -0.72864,0.396875 0.72864,0.396875 0.59531,-0.325562 v 0.458887 h 0.13332 v -0.5302 z m -0.46199,0.672827 v 0.26665 l 0.46199,0.251148 0.46198,-0.251148 v -0.26665 l -0.46198,0.254248 z"
         id="path60237-0"
         style="fill:#282828;fill-opacity:1" />
    </g>
    <g
       aria-label="󰑴"
       id="g60260"
       style="font-size:1.5875px;line-height:1.25;font-family:'Material Design Icons Desktop';-inkscape-font-specification:'Material Design Icons Desktop';display:inline;fill:#282828;fill-opacity:1;stroke-width:0.264583"
       transform="translate(-39.725116,126.68175)">
      <path
         d="m 162.77967,66.366916 -0.72864,0.396875 0.72864,0.396875 0.59531,-0.325562 v 0.458887 h 0.13332 v -0.5302 z m -0.46199,0.672827 v 0.26665 l 0.46199,0.251148 0.46198,-0.251148 v -0.26665 l -0.46198,0.254248 z"
         id="path60258"
         style="fill:#282828;fill-opacity:1" />
    </g>
    <g
       aria-label="󰑴"
       id="g60264"
       style="font-size:1.5875px;line-height:1.25;font-family:'Material Design Icons Desktop';-inkscape-font-specification:'Material Design Icons Desktop';display:inline;fill:#282828;fill-opacity:1;stroke-width:0.264583"
       transform="translate(-45.434646,126.68175)">
      <path
         d="m 162.77967,66.366916 -0.72864,0.396875 0.72864,0.396875 0.59531,-0.325562 v 0.458887 h 0.13332 v -0.5302 z m -0.46199,0.672827 v 0.26665 l 0.46199,0.251148 0.46198,-0.251148 v -0.26665 l -0.46198,0.254248 z"
         id="path60262"
         style="fill:#282828;fill-opacity:1" />
    </g>
    <rect
       style="display:inline;fill:#776b60;fill-opacity:1;stroke:none;stroke-width:0;stroke-opacity:1;paint-order:stroke fill markers"
       id="rect16151-7-4-63-93-7-6-2-4"
       width="3.6068199"
       height="4.3069344"
       x="125.53875"
       y="206.34238" />
    <g
       aria-label="󰑴"
       id="text57823-7"
       style="font-size:1.5875px;line-height:1.25;font-family:'Material Design Icons Desktop';-inkscape-font-specification:'Material Design Icons Desktop';display:inline;fill:#282828;fill-opacity:1;stroke-width:0.264583"
       transform="translate(-35.437513,141.53362)">
      <path
         d="m 162.77967,66.366916 -0.72864,0.396875 0.72864,0.396875 0.59531,-0.325562 v 0.458887 h 0.13332 v -0.5302 z m -0.46199,0.672827 v 0.26665 l 0.46199,0.251148 0.46198,-0.251148 v -0.26665 l -0.46198,0.254248 z"
         id="path60237-6"
         style="fill:#282828;fill-opacity:1" />
    </g>
    <rect
       style="display:inline;fill:#776b60;fill-opacity:1;stroke:none;stroke-width:0;stroke-opacity:1;paint-order:stroke fill markers"
       id="rect16151-7-4-63-93-7-6-2-43"
       width="3.6068199"
       height="4.3069344"
       x="121.23824"
       y="206.34238" />
    <g
       aria-label="󰑴"
       id="text57823-0"
       style="font-size:1.5875px;line-height:1.25;font-family:'Material Design Icons Desktop';-inkscape-font-specification:'Material Design Icons Desktop';display:inline;fill:#282828;fill-opacity:1;stroke-width:0.264583"
       transform="translate(-39.738012,141.53362)">
      <path
         d="m 162.77967,66.366916 -0.72864,0.396875 0.72864,0.396875 0.59531,-0.325562 v 0.458887 h 0.13332 v -0.5302 z m -0.46199,0.672827 v 0.26665 l 0.46199,0.251148 0.46198,-0.251148 v -0.26665 l -0.46198,0.254248 z"
         id="path60237-5"
         style="fill:#282828;fill-opacity:1" />
    </g>
    <rect
       style="display:inline;fill:#776b60;fill-opacity:1;stroke:none;stroke-width:0;stroke-opacity:1;paint-order:stroke fill markers"
       id="rect16151-7-4-63-93-7-6-2-9"
       width="3.6068199"
       height="4.3069344"
       x="116.96352"
       y="206.34238" />
    <g
       aria-label="󰑴"
       id="text57823-4"
       style="font-size:1.5875px;line-height:1.25;font-family:'Material Design Icons Desktop';-inkscape-font-specification:'Material Design Icons Desktop';display:inline;fill:#282828;fill-opacity:1;stroke-width:0.264583"
       transform="translate(-44.012717,141.53362)">
      <path
         d="m 162.77967,66.366916 -0.72864,0.396875 0.72864,0.396875 0.59531,-0.325562 v 0.458887 h 0.13332 v -0.5302 z m -0.46199,0.672827 v 0.26665 l 0.46199,0.251148 0.46198,-0.251148 v -0.26665 l -0.46198,0.254248 z"
         id="path60237-77"
         style="fill:#282828;fill-opacity:1" />
    </g>
    <g
       aria-label="󰙉"
       id="text69667"
       style="font-weight:bold;font-size:1.5875px;line-height:1.25;font-family:'Material Design Icons Desktop';-inkscape-font-specification:'Material Design Icons Desktop Bold';display:inline;fill:#282828;fill-opacity:1;stroke-width:0.264583"
       transform="translate(-47.595998,153.11946)">
      <path
         d="m 162.14444,55.358856 q 0.0558,0 0.093,0.04031 0.0403,0.03721 0.0403,0.09302 0,0.05271 -0.0403,0.09302 -0.0372,0.03721 -0.093,0.03721 -0.0558,0 -0.0961,-0.03721 -0.0372,-0.04031 -0.0372,-0.09302 0,-0.05581 0.0372,-0.09302 0.0403,-0.04031 0.0961,-0.04031 z m -0.0992,1.32085 v -0.396875 h -0.19843 l 0.17053,-0.502295 q 0.0124,-0.04031 0.0465,-0.06511 0.0372,-0.02791 0.0806,-0.02791 0.0434,0 0.0775,0.02791 0.0372,0.0248 0.0496,0.06511 l 0.17053,0.502295 h -0.19844 v 0.396875 z"
         id="path73845"
         style="fill:#282828;fill-opacity:1" />
    </g>
    <rect
       style="display:inline;fill:#776b60;fill-opacity:1;fill-rule:nonzero;stroke:none;stroke-width:0;stroke-opacity:1;paint-order:stroke fill markers"
       id="rect2564-5-2"
       width="4.0356307"
       height="3.0211525"
       x="108.11205"
       y="207.62816" />
    <g
       aria-label="󰙍"
       id="text72047"
       style="font-weight:bold;font-size:1.5875px;line-height:1.25;font-family:'Material Design Icons Desktop';-inkscape-font-specification:'Material Design Icons Desktop Bold';display:inline;fill:#282828;fill-opacity:1;stroke-width:0.264583"
       transform="translate(-54.763364,149.04568)">
      <path
         d="m 164.89322,59.432632 q 0.0558,0 0.093,0.04031 0.0403,0.03721 0.0403,0.09302 0,0.05271 -0.0403,0.09302 -0.0372,0.03721 -0.093,0.03721 -0.0558,0 -0.0961,-0.03721 -0.0372,-0.04031 -0.0372,-0.09302 0,-0.05581 0.0372,-0.09302 0.0403,-0.04031 0.0961,-0.04031 z m -0.0992,0.328663 h 0.19844 q 0.0558,0 0.093,0.04031 0.0403,0.03721 0.0403,0.09302 v 0.362768 h -0.0992 v 0.496094 h -0.26665 v -0.496094 h -0.0992 V 59.89462 q 0,-0.05581 0.0372,-0.09302 0.0403,-0.04031 0.0961,-0.04031 z"
         id="path73848"
         style="fill:#282828;fill-opacity:1" />
    </g>
    <rect
       style="display:inline;fill:#7daea3;fill-opacity:1;fill-rule:nonzero;stroke:none;stroke-width:0;stroke-opacity:1;paint-order:stroke fill markers"
       id="rect76931"
       width="0.29999843"
       height="2.0002499"
       x="190.99367"
       y="-117.63079"
       transform="rotate(90)" />
    <rect
       style="display:inline;fill:#7daea3;fill-opacity:1;fill-rule:nonzero;stroke:none;stroke-width:0;stroke-opacity:1;paint-order:stroke fill markers"
       id="rect76933"
       width="0.29999843"
       height="2.0002499"
       x="-129.63133"
       y="-194.14403"
       transform="scale(-1)" />
    <rect
       style="display:inline;fill:#7daea3;fill-opacity:1;fill-rule:nonzero;stroke:none;stroke-width:0;stroke-opacity:1;paint-order:stroke fill markers"
       id="rect76935"
       width="0.29999843"
       height="2.0002499"
       x="-129.64243"
       y="-200.44479"
       transform="scale(-1)" />
    <rect
       style="display:inline;fill:#7daea3;fill-opacity:1;fill-rule:nonzero;stroke:none;stroke-width:0;stroke-opacity:1;paint-order:stroke fill markers"
       id="rect76937"
       width="0.29999843"
       height="2.0002499"
       x="-129.63133"
       y="-203.14516"
       transform="scale(-1)" />
    <rect
       style="display:inline;fill:#7daea3;fill-opacity:1;fill-rule:nonzero;stroke:none;stroke-width:0;stroke-opacity:1;paint-order:stroke fill markers"
       id="rect76937-4"
       width="0.29999843"
       height="2.0002499"
       x="-129.64241"
       y="-205.84554"
       transform="scale(-1)" />
    <rect
       style="display:inline;fill:#7daea3;fill-opacity:1;fill-rule:nonzero;stroke:none;stroke-width:0;stroke-opacity:1;paint-order:stroke fill markers"
       id="rect76935-2"
       width="0.29999843"
       height="2.0002499"
       x="-129.64241"
       y="-208.14578"
       transform="scale(-1)" />
    <rect
       style="display:inline;fill:#7daea3;fill-opacity:1;fill-rule:nonzero;stroke:none;stroke-width:0;stroke-opacity:1;paint-order:stroke fill markers"
       id="rect76937-8"
       width="0.29999843"
       height="2.0002499"
       x="-129.63132"
       y="-210.84616"
       transform="scale(-1)" />
    <rect
       style="display:inline;fill:#7daea3;fill-opacity:1;fill-rule:nonzero;stroke:none;stroke-width:0;stroke-opacity:1;paint-order:stroke fill markers"
       id="rect76939"
       width="0.29999843"
       height="1.8502483"
       x="-129.64241"
       y="-198.14453"
       transform="scale(-1)" />
    <rect
       style="display:inline;fill:#7daea3;fill-opacity:1;fill-rule:nonzero;stroke:none;stroke-width:0;stroke-opacity:1;paint-order:stroke fill markers"
       id="rect76941"
       width="0.29999843"
       height="1.8502483"
       x="-129.64241"
       y="-198.14453"
       transform="scale(-1)" />
    <rect
       style="display:inline;fill:#7daea3;fill-opacity:1;fill-rule:nonzero;stroke:none;stroke-width:0;stroke-opacity:1;paint-order:stroke fill markers"
       id="rect3865-0-0-8"
       width="0.29999843"
       height="0.85012573"
       x="-129.63133"
       y="-195.99429"
       transform="scale(-1)" />
    <rect
       style="display:inline;fill:#7daea3;fill-opacity:1;fill-rule:nonzero;stroke:none;stroke-width:0;stroke-opacity:1;paint-order:stroke fill markers"
       id="rect3865-0-0-629"
       width="0.29999843"
       height="2.0002499"
       x="210.84366"
       y="-120.76719"
       transform="rotate(90)" />
    <rect
       style="display:inline;fill:#7daea3;fill-opacity:1;fill-rule:nonzero;stroke:none;stroke-width:0;stroke-opacity:1;paint-order:stroke fill markers"
       id="rect3867-9-5-9"
       width="0.29999843"
       height="1.290022"
       x="210.84366"
       y="-118.05671"
       transform="rotate(90)" />
    <rect
       style="display:inline;fill:#7daea3;fill-opacity:1;fill-rule:nonzero;stroke:none;stroke-width:0;stroke-opacity:1;paint-order:stroke fill markers"
       id="rect3865-0-0-1"
       width="0.29999843"
       height="2.0002499"
       x="210.84366"
       y="-116.4667"
       transform="rotate(90)" />
    <rect
       style="display:inline;fill:#7daea3;fill-opacity:1;fill-rule:nonzero;stroke:none;stroke-width:0;stroke-opacity:1;paint-order:stroke fill markers"
       id="rect3867-9-5-3"
       width="0.29999843"
       height="1.290022"
       x="210.84366"
       y="-113.9202"
       transform="rotate(90)" />
    <rect
       style="display:inline;fill:#7daea3;fill-opacity:1;fill-rule:nonzero;stroke:none;stroke-width:0;stroke-opacity:1;paint-order:stroke fill markers"
       id="rect3865-0-0-6-1"
       width="0.29999843"
       height="2.0002499"
       x="210.84366"
       y="-112.16619"
       transform="rotate(90)" />
    <rect
       style="display:inline;fill:#7daea3;fill-opacity:1;fill-rule:nonzero;stroke:none;stroke-width:0;stroke-opacity:1;paint-order:stroke fill markers"
       id="rect3867-9-5-4-1"
       width="0.29999843"
       height="1.290022"
       x="210.84366"
       y="-109.45571"
       transform="rotate(90)" />
    <rect
       style="display:inline;fill:#7daea3;fill-opacity:1;fill-rule:nonzero;stroke:none;stroke-width:0;stroke-opacity:1;paint-order:stroke fill markers"
       id="rect77416"
       width="0.29999843"
       height="2.0002499"
       x="190.99367"
       y="-113.63029"
       transform="rotate(90)" />
    <rect
       style="display:inline;fill:#7daea3;fill-opacity:1;fill-rule:nonzero;stroke:none;stroke-width:0;stroke-opacity:1;paint-order:stroke fill markers"
       id="rect77418"
       width="0.29999843"
       height="2.0002499"
       x="-99.940147"
       y="-202.83356"
       transform="scale(-1)" />
    <rect
       style="display:inline;fill:#7daea3;fill-opacity:1;fill-rule:nonzero;stroke:none;stroke-width:0;stroke-opacity:1;paint-order:stroke fill markers"
       id="rect77420"
       width="0.29999843"
       height="2.0002499"
       x="-99.940147"
       y="-199.83318"
       transform="scale(-1)" />
    <rect
       style="display:inline;fill:#7daea3;fill-opacity:1;fill-rule:nonzero;stroke:none;stroke-width:0;stroke-opacity:1;paint-order:stroke fill markers"
       id="rect77422"
       width="0.29999843"
       height="2.0002499"
       x="-99.940147"
       y="-196.83281"
       transform="scale(-1)" />
    <rect
       style="display:inline;fill:#7daea3;fill-opacity:1;fill-rule:nonzero;stroke:none;stroke-width:0;stroke-opacity:1;paint-order:stroke fill markers"
       id="rect77424"
       width="0.29999843"
       height="2.0002499"
       x="-99.940147"
       y="-194.14404"
       transform="scale(-1)" />
    <rect
       style="display:inline;fill:#7daea3;fill-opacity:1;fill-rule:nonzero;stroke:none;stroke-width:0;stroke-opacity:1;paint-order:stroke fill markers"
       id="rect77520"
       width="0.29999843"
       height="2.0002499"
       x="-99.95295"
       y="-210.14603"
       transform="scale(-1)" />
    <rect
       style="display:inline;fill:#7daea3;fill-opacity:1;fill-rule:nonzero;stroke:none;stroke-width:0;stroke-opacity:1;paint-order:stroke fill markers"
       id="rect77522"
       width="0.29999843"
       height="2.0002499"
       x="210.84366"
       y="-102.62893"
       transform="rotate(90)" />
    <rect
       style="display:inline;fill:#7daea3;fill-opacity:1;fill-rule:nonzero;stroke:none;stroke-width:0;stroke-opacity:1;paint-order:stroke fill markers"
       id="rect77524"
       width="0.29999843"
       height="2.0002499"
       x="210.84366"
       y="-105.6293"
       transform="rotate(90)" />
    <path
       style="display:inline;fill:none;stroke:#e78a4e;stroke-width:0.264999;stroke-linecap:butt;stroke-linejoin:miter;stroke-miterlimit:4;stroke-dasharray:0.530005, 0.264999;stroke-dashoffset:0.106;stroke-opacity:1;paint-order:normal"
       d="m 100.07265,191.29366 h 13.55765 v 12.87822 h -13.55765 z"
       id="path7864-8" />
    <path
       style="display:inline;fill:none;stroke:#ea6962;stroke-width:0.1;stroke-linecap:butt;stroke-linejoin:miter;stroke-miterlimit:4;stroke-dasharray:none;stroke-opacity:1"
       d="m 111.63005,203.14516 v 1.00012 h 1.00025"
       id="path88894" />
  </g>
</svg>
